<?xml version="1.0" encoding="UTF-8" standalone="no"?><svg xmlns="http://www.w3.org/2000/svg" xmlns:xlink="http://www.w3.org/1999/xlink" contentScriptType="application/ecmascript" contentStyleType="text/css" height="230px" preserveAspectRatio="none" style="width:131px;height:230px;" version="1.1" viewBox="0 0 131 230" width="131px" zoomAndPan="magnify"><defs><filter height="300%" id="focd8l8ubmubi" width="300%" x="-1" y="-1"><feGaussianBlur result="blurOut" stdDeviation="2.0"/><feColorMatrix in="blurOut" result="blurOut2" type="matrix" values="0 0 0 0 0 0 0 0 0 0 0 0 0 0 0 0 0 0 .4 0"/><feOffset dx="4.0" dy="4.0" in="blurOut2" result="blurOut3"/><feBlend in="SourceGraphic" in2="blurOut3" mode="normal"/></filter></defs><g><!--MD5=[bd6e5d4dd3d7814cbdc3148d3ed1ec4b]
class Flight--><rect fill="#FEFECE" filter="url(#focd8l8ubmubi)" height="75.6719" id="Flight" style="stroke: #A80036; stroke-width: 1.5;" width="114" x="6" y="8"/><ellipse cx="44.4" cy="24" fill="#ADD1B2" rx="11" ry="11" style="stroke: #A80036; stroke-width: 1.0;"/><path d="M47.1656,19.875 Q47.3219,19.6563 47.5094,19.5469 Q47.6969,19.4375 47.9156,19.4375 Q48.2906,19.4375 48.525,19.6953 Q48.7594,19.9531 48.7594,20.5625 L48.7594,22.0156 Q48.7594,22.625 48.525,22.8906 Q48.2906,23.1563 47.9156,23.1563 Q47.5719,23.1563 47.3688,22.9531 Q47.1656,22.7656 47.0563,22.25 Q47.0094,21.8906 46.8219,21.7031 Q46.4938,21.3281 45.8844,21.1094 Q45.275,20.8906 44.65,20.8906 Q43.8844,20.8906 43.2516,21.2188 Q42.6188,21.5469 42.1266,22.2969 Q41.6344,23.0469 41.6344,24.0781 L41.6344,25.1719 Q41.6344,26.4063 42.525,27.2266 Q43.4156,28.0469 45.0094,28.0469 Q45.9469,28.0469 46.6031,27.7969 Q46.9938,27.6406 47.4156,27.2031 Q47.6813,26.9375 47.8297,26.8594 Q47.9781,26.7813 48.1813,26.7813 Q48.5094,26.7813 48.7672,27.0391 Q49.025,27.2969 49.025,27.6406 Q49.025,27.9844 48.6813,28.3906 Q48.1813,28.9688 47.3844,29.2969 Q46.3063,29.75 45.0094,29.75 Q43.4938,29.75 42.2906,29.125 Q41.3063,28.625 40.6188,27.5547 Q39.9313,26.4844 39.9313,25.2031 L39.9313,24.0469 Q39.9313,22.7188 40.5484,21.5703 Q41.1656,20.4219 42.2594,19.8047 Q43.3531,19.1875 44.5875,19.1875 Q45.3219,19.1875 45.9703,19.3516 Q46.6188,19.5156 47.1656,19.875 Z "/><text fill="#000000" font-family="sans-serif" font-size="12" lengthAdjust="spacingAndGlyphs" textLength="30" x="63.6" y="28.9102">Flight</text><line style="stroke: #A80036; stroke-width: 1.5;" x1="7" x2="119" y1="40" y2="40"/><text fill="#000000" font-family="sans-serif" font-size="11" lengthAdjust="spacingAndGlyphs" textLength="102" x="12" y="55.4189">flightNumber : Integer</text><text fill="#000000" font-family="sans-serif" font-size="11" lengthAdjust="spacingAndGlyphs" textLength="100" x="12" y="69.2549">departureTime : Date</text><line style="stroke: #A80036; stroke-width: 1.5;" x1="7" x2="119" y1="75.6719" y2="75.6719"/><!--MD5=[c54ba4f61d01a424743e5a1fa0f9e38e]
class Dummy--><rect fill="#FEFECE" filter="url(#focd8l8ubmubi)" height="75.6719" id="Dummy" style="stroke: #A80036; stroke-width: 1.5;" width="84" x="21" y="144"/><ellipse cx="40.05" cy="160" fill="#ADD1B2" rx="11" ry="11" style="stroke: #A80036; stroke-width: 1.0;"/><path d="M42.8156,155.875 Q42.9719,155.6563 43.1594,155.5469 Q43.3469,155.4375 43.5656,155.4375 Q43.9406,155.4375 44.175,155.6953 Q44.4094,155.9531 44.4094,156.5625 L44.4094,158.0156 Q44.4094,158.625 44.175,158.8906 Q43.9406,159.1563 43.5656,159.1563 Q43.2219,159.1563 43.0188,158.9531 Q42.8156,158.7656 42.7063,158.25 Q42.6594,157.8906 42.4719,157.7031 Q42.1438,157.3281 41.5344,157.1094 Q40.925,156.8906 40.3,156.8906 Q39.5344,156.8906 38.9016,157.2188 Q38.2688,157.5469 37.7766,158.2969 Q37.2844,159.0469 37.2844,160.0781 L37.2844,161.1719 Q37.2844,162.4063 38.175,163.2266 Q39.0656,164.0469 40.6594,164.0469 Q41.5969,164.0469 42.2531,163.7969 Q42.6438,163.6406 43.0656,163.2031 Q43.3313,162.9375 43.4797,162.8594 Q43.6281,162.7813 43.8313,162.7813 Q44.1594,162.7813 44.4172,163.0391 Q44.675,163.2969 44.675,163.6406 Q44.675,163.9844 44.3313,164.3906 Q43.8313,164.9688 43.0344,165.2969 Q41.9563,165.75 40.6594,165.75 Q39.1438,165.75 37.9406,165.125 Q36.9563,164.625 36.2688,163.5547 Q35.5813,162.4844 35.5813,161.2031 L35.5813,160.0469 Q35.5813,158.7188 36.1984,157.5703 Q36.8156,156.4219 37.9094,155.8047 Q39.0031,155.1875 40.2375,155.1875 Q40.9719,155.1875 41.6203,155.3516 Q42.2688,155.5156 42.8156,155.875 Z "/><text fill="#000000" font-family="sans-serif" font-size="12" lengthAdjust="spacingAndGlyphs" textLength="43" x="54.95" y="164.9102">Dummy</text><line style="stroke: #A80036; stroke-width: 1.5;" x1="22" x2="104" y1="176" y2="176"/><text fill="#000000" font-family="sans-serif" font-size="11" lengthAdjust="spacingAndGlyphs" textLength="52" x="27" y="191.4189">String data</text><line style="stroke: #A80036; stroke-width: 1.5;" x1="22" x2="104" y1="197.8359" y2="197.8359"/><text fill="#000000" font-family="sans-serif" font-size="11" lengthAdjust="spacingAndGlyphs" textLength="72" x="27" y="213.2549">void methods()</text><!--MD5=[7953794471cfbcdf065b439153f8da70]
reverse link Flight to Dummy--><path d="M63,104.246 C63,104.246 63,143.5703 63,143.5703 " fill="none" id="Flight&lt;-Dummy" style="stroke: #A80036; stroke-width: 1.0;"/><polygon fill="none" points="56.0001,104.246,63,84.246,70.0001,104.245,56.0001,104.246" style="stroke: #A80036; stroke-width: 1.0;"/><!--MD5=[b99a70b2b20ffa63fa16ba80c80aa237]
@startuml class
skinparam linetype ortho

Flight <|- - Dummy

class Dummy {
  String data
  void methods()
}

class Flight {
  flightNumber : Integer
  departureTime : Date
}

@enduml

PlantUML version 1.2020.10(Sun May 17 06:35:57 GMT-03:00 2020)
(GPL source distribution)
Java Runtime: Java(TM) SE Runtime Environment
JVM: Java HotSpot(TM) 64-Bit Server VM
Java Version: 1.8.0_261-b12
Operating System: Windows 10
Default Encoding: Cp1252
Language: en
Country: US
--></g></svg>