<?xml version="1.0" encoding="UTF-8" standalone="no"?><svg xmlns="http://www.w3.org/2000/svg" xmlns:xlink="http://www.w3.org/1999/xlink" contentScriptType="application/ecmascript" contentStyleType="text/css" height="1299px" preserveAspectRatio="none" style="width:1615px;height:1299px;" version="1.1" viewBox="0 0 1615 1299" width="1615px" zoomAndPan="magnify"><defs><filter height="300%" id="fykqy3lnuuxkr" width="300%" x="-1" y="-1"><feGaussianBlur result="blurOut" stdDeviation="2.0"/><feColorMatrix in="blurOut" result="blurOut2" type="matrix" values="0 0 0 0 0 0 0 0 0 0 0 0 0 0 0 0 0 0 .4 0"/><feOffset dx="4.0" dy="4.0" in="blurOut2" result="blurOut3"/><feBlend in="SourceGraphic" in2="blurOut3" mode="normal"/></filter></defs><g><!--MD5=[efc5cba7aee5f5fa8719cc7ec66bdfe7]
class TipoAcademicoEnum--><rect fill="#FEFECE" filter="url(#fykqy3lnuuxkr)" height="89.6953" id="TipoAcademicoEnum" style="stroke: #A80036; stroke-width: 1.5;" width="150" x="677" y="541"/><ellipse cx="692" cy="561.0938" fill="#EB937F" rx="11" ry="11" style="stroke: #A80036; stroke-width: 1.0;"/><path d="M690.8594,561.8906 L690.8594,564.3906 L695.1875,564.3906 L695.1875,563.4688 Q695.1875,562.8594 695.4297,562.5938 Q695.6719,562.3281 696.0469,562.3281 Q696.4219,562.3281 696.6563,562.5938 Q696.8906,562.8594 696.8906,563.4688 L696.8906,566.0938 L688.8906,566.0938 Q688.2656,566.0938 688.0078,565.8594 Q687.75,565.625 687.75,565.2344 Q687.75,564.8594 688.0156,564.625 Q688.2813,564.3906 688.8906,564.3906 L689.1563,564.3906 L689.1563,557.7344 L688.8906,557.7344 Q688.2656,557.7344 688.0078,557.5 Q687.75,557.2656 687.75,556.875 Q687.75,556.5 688.0078,556.2656 Q688.2656,556.0313 688.8906,556.0313 L696.5156,556.0313 L696.5156,558.625 Q696.5156,559.2344 696.2891,559.4922 Q696.0625,559.75 695.6719,559.75 Q695.2969,559.75 695.0625,559.4922 Q694.8281,559.2344 694.8281,558.625 L694.8281,557.7344 L690.8594,557.7344 L690.8594,560.1875 L692.3438,560.1875 Q692.3438,559.5313 692.4688,559.3438 Q692.7344,558.9375 693.2031,558.9375 Q693.5781,558.9375 693.8125,559.1953 Q694.0469,559.4531 694.0469,560.0625 L694.0469,562.0313 Q694.0469,562.5781 693.9219,562.7656 Q693.6563,563.1563 693.2031,563.1563 Q692.7344,563.1563 692.4688,562.75 Q692.3438,562.5625 692.3438,561.8906 L690.8594,561.8906 Z "/><text fill="#000000" font-family="sans-serif" font-size="12" font-style="italic" lengthAdjust="spacingAndGlyphs" textLength="47" x="741.5" y="558.457">«Enum»</text><text fill="#000000" font-family="sans-serif" font-size="12" lengthAdjust="spacingAndGlyphs" textLength="118" x="706" y="573.5508">TipoAcademicoEnum</text><line style="stroke: #A80036; stroke-width: 1.5;" x1="678" x2="826" y1="581.1875" y2="581.1875"/><text fill="#000000" font-family="sans-serif" font-size="11" lengthAdjust="spacingAndGlyphs" textLength="36" x="683" y="596.6064">ALUNO</text><text fill="#000000" font-family="sans-serif" font-size="11" lengthAdjust="spacingAndGlyphs" textLength="62" x="683" y="610.4424">PROFESSOR</text><text fill="#000000" font-family="sans-serif" font-size="11" lengthAdjust="spacingAndGlyphs" textLength="66" x="683" y="624.2783">TECNICOADM</text><!--MD5=[4c48fb15ab53eca5ffe2e9e47e01b0d6]
class TipoMidiaEnum--><rect fill="#FEFECE" filter="url(#fykqy3lnuuxkr)" height="103.5313" id="TipoMidiaEnum" style="stroke: #A80036; stroke-width: 1.5;" width="118" x="850" y="359"/><ellipse cx="865" cy="379.0938" fill="#EB937F" rx="11" ry="11" style="stroke: #A80036; stroke-width: 1.0;"/><path d="M863.8594,379.8906 L863.8594,382.3906 L868.1875,382.3906 L868.1875,381.4688 Q868.1875,380.8594 868.4297,380.5938 Q868.6719,380.3281 869.0469,380.3281 Q869.4219,380.3281 869.6563,380.5938 Q869.8906,380.8594 869.8906,381.4688 L869.8906,384.0938 L861.8906,384.0938 Q861.2656,384.0938 861.0078,383.8594 Q860.75,383.625 860.75,383.2344 Q860.75,382.8594 861.0156,382.625 Q861.2813,382.3906 861.8906,382.3906 L862.1563,382.3906 L862.1563,375.7344 L861.8906,375.7344 Q861.2656,375.7344 861.0078,375.5 Q860.75,375.2656 860.75,374.875 Q860.75,374.5 861.0078,374.2656 Q861.2656,374.0313 861.8906,374.0313 L869.5156,374.0313 L869.5156,376.625 Q869.5156,377.2344 869.2891,377.4922 Q869.0625,377.75 868.6719,377.75 Q868.2969,377.75 868.0625,377.4922 Q867.8281,377.2344 867.8281,376.625 L867.8281,375.7344 L863.8594,375.7344 L863.8594,378.1875 L865.3438,378.1875 Q865.3438,377.5313 865.4688,377.3438 Q865.7344,376.9375 866.2031,376.9375 Q866.5781,376.9375 866.8125,377.1953 Q867.0469,377.4531 867.0469,378.0625 L867.0469,380.0313 Q867.0469,380.5781 866.9219,380.7656 Q866.6563,381.1563 866.2031,381.1563 Q865.7344,381.1563 865.4688,380.75 Q865.3438,380.5625 865.3438,379.8906 L863.8594,379.8906 Z "/><text fill="#000000" font-family="sans-serif" font-size="12" font-style="italic" lengthAdjust="spacingAndGlyphs" textLength="47" x="898.5" y="376.457">«Enum»</text><text fill="#000000" font-family="sans-serif" font-size="12" lengthAdjust="spacingAndGlyphs" textLength="86" x="879" y="391.5508">TipoMidiaEnum</text><line style="stroke: #A80036; stroke-width: 1.5;" x1="851" x2="967" y1="399.1875" y2="399.1875"/><text fill="#000000" font-family="sans-serif" font-size="11" lengthAdjust="spacingAndGlyphs" textLength="39" x="856" y="414.6064">MUSICA</text><text fill="#000000" font-family="sans-serif" font-size="11" lengthAdjust="spacingAndGlyphs" textLength="31" x="856" y="428.4424">VIDEO</text><text fill="#000000" font-family="sans-serif" font-size="11" lengthAdjust="spacingAndGlyphs" textLength="49" x="856" y="442.2783">PODCAST</text><text fill="#000000" font-family="sans-serif" font-size="11" lengthAdjust="spacingAndGlyphs" textLength="31" x="856" y="456.1143">LIVRO</text><!--MD5=[35a64b983c79880384a2fd9b61f0c24b]
class Usuario--><rect fill="#FEFECE" filter="url(#fykqy3lnuuxkr)" height="172.5234" id="Usuario" style="stroke: #A80036; stroke-width: 1.5;" width="249" x="621.5" y="125"/><ellipse cx="720.25" cy="141" fill="#A9DCDF" rx="11" ry="11" style="stroke: #A80036; stroke-width: 1.0;"/><path d="M722.4375,142.7656 L718.2969,142.7656 L717.875,143.7969 L718.2969,143.7969 Q718.9063,143.7969 719.1719,144.0313 Q719.4375,144.2656 719.4375,144.6563 Q719.4375,145.0313 719.1719,145.2656 Q718.9063,145.5 718.2969,145.5 L716,145.5 Q715.3906,145.5 715.1328,145.2656 Q714.875,145.0313 714.875,144.6406 Q714.875,144.2656 715.1484,144.0234 Q715.4219,143.7813 716.0469,143.7969 L718.7188,137.1406 L717.6094,137.1406 Q717,137.1406 716.7344,136.9063 Q716.4688,136.6719 716.4688,136.2813 Q716.4688,135.9063 716.7344,135.6719 Q717,135.4375 717.6094,135.4375 L721.2813,135.4375 L724.6719,143.7969 Q725.2656,143.7969 725.4531,143.9375 Q725.8438,144.2031 725.8438,144.6563 Q725.8438,145.0313 725.5859,145.2656 Q725.3281,145.5 724.7188,145.5 L722.4219,145.5 Q721.8125,145.5 721.5469,145.2656 Q721.2813,145.0313 721.2813,144.6406 Q721.2813,144.2656 721.5469,144.0313 Q721.8125,143.7969 722.4219,143.7969 L722.8438,143.7969 L722.4375,142.7656 Z M721.7188,141.0625 L720.3594,137.6875 L718.9844,141.0625 L721.7188,141.0625 Z "/><text fill="#000000" font-family="sans-serif" font-size="12" font-style="italic" lengthAdjust="spacingAndGlyphs" textLength="43" x="740.75" y="145.9102">Usuario</text><line style="stroke: #A80036; stroke-width: 1.5;" x1="622.5" x2="869.5" y1="157" y2="157"/><text fill="#000000" font-family="sans-serif" font-size="11" lengthAdjust="spacingAndGlyphs" textLength="26" x="627.5" y="172.4189">nome</text><text fill="#000000" font-family="sans-serif" font-size="11" lengthAdjust="spacingAndGlyphs" textLength="54" x="627.5" y="186.2549">ultimoNome</text><text fill="#000000" font-family="sans-serif" font-size="11" lengthAdjust="spacingAndGlyphs" textLength="24" x="627.5" y="200.0908">email</text><text fill="#000000" font-family="sans-serif" font-size="11" lengthAdjust="spacingAndGlyphs" textLength="30" x="627.5" y="213.9268">senha</text><text fill="#000000" font-family="sans-serif" font-size="11" lengthAdjust="spacingAndGlyphs" textLength="33" x="627.5" y="227.7627">credito</text><text fill="#000000" font-family="sans-serif" font-size="11" lengthAdjust="spacingAndGlyphs" textLength="138" x="627.5" y="241.5986">List&lt;Midia&gt; midiasAdquiridas</text><text fill="#000000" font-family="sans-serif" font-size="11" lengthAdjust="spacingAndGlyphs" textLength="237" x="627.5" y="255.4346">Map&lt;TipoMidiaEnum, List&lt;Midia&gt;&gt; midiasfavoritas</text><line style="stroke: #A80036; stroke-width: 1.0;" x1="622.5" x2="869.5" y1="261.8516" y2="261.8516"/><text fill="#000000" font-family="sans-serif" font-size="11" lengthAdjust="spacingAndGlyphs" textLength="52" x="627.5" y="277.2705">autentica()</text><text fill="#000000" font-family="sans-serif" font-size="11" lengthAdjust="spacingAndGlyphs" textLength="88" x="627.5" y="291.1064">adicionaCreditos()</text><!--MD5=[dc04dbf1821e9b6a5ff361465a379a2f]
class Academico--><rect fill="#FEFECE" filter="url(#fykqy3lnuuxkr)" height="61.8359" id="Academico" style="stroke: #A80036; stroke-width: 1.5;" width="138" x="677" y="380"/><ellipse cx="712.25" cy="396" fill="#ADD1B2" rx="11" ry="11" style="stroke: #A80036; stroke-width: 1.0;"/><path d="M715.0156,391.875 Q715.1719,391.6563 715.3594,391.5469 Q715.5469,391.4375 715.7656,391.4375 Q716.1406,391.4375 716.375,391.6953 Q716.6094,391.9531 716.6094,392.5625 L716.6094,394.0156 Q716.6094,394.625 716.375,394.8906 Q716.1406,395.1563 715.7656,395.1563 Q715.4219,395.1563 715.2188,394.9531 Q715.0156,394.7656 714.9063,394.25 Q714.8594,393.8906 714.6719,393.7031 Q714.3438,393.3281 713.7344,393.1094 Q713.125,392.8906 712.5,392.8906 Q711.7344,392.8906 711.1016,393.2188 Q710.4688,393.5469 709.9766,394.2969 Q709.4844,395.0469 709.4844,396.0781 L709.4844,397.1719 Q709.4844,398.4063 710.375,399.2266 Q711.2656,400.0469 712.8594,400.0469 Q713.7969,400.0469 714.4531,399.7969 Q714.8438,399.6406 715.2656,399.2031 Q715.5313,398.9375 715.6797,398.8594 Q715.8281,398.7813 716.0313,398.7813 Q716.3594,398.7813 716.6172,399.0391 Q716.875,399.2969 716.875,399.6406 Q716.875,399.9844 716.5313,400.3906 Q716.0313,400.9688 715.2344,401.2969 Q714.1563,401.75 712.8594,401.75 Q711.3438,401.75 710.1406,401.125 Q709.1563,400.625 708.4688,399.5547 Q707.7813,398.4844 707.7813,397.2031 L707.7813,396.0469 Q707.7813,394.7188 708.3984,393.5703 Q709.0156,392.4219 710.1094,391.8047 Q711.2031,391.1875 712.4375,391.1875 Q713.1719,391.1875 713.8203,391.3516 Q714.4688,391.5156 715.0156,391.875 Z "/><text fill="#000000" font-family="sans-serif" font-size="12" lengthAdjust="spacingAndGlyphs" textLength="61" x="730.75" y="400.9102">Academico</text><line style="stroke: #A80036; stroke-width: 1.5;" x1="678" x2="814" y1="412" y2="412"/><text fill="#000000" font-family="sans-serif" font-size="11" lengthAdjust="spacingAndGlyphs" textLength="126" x="683" y="427.4189">tipo : TipoAcademicoEnum</text><line style="stroke: #A80036; stroke-width: 1.5;" x1="678" x2="814" y1="433.8359" y2="433.8359"/><!--MD5=[fdcda49d453d44c676d62f3f6af62207]
class Administrador--><rect fill="#FEFECE" filter="url(#fykqy3lnuuxkr)" height="48" id="Administrador" style="stroke: #A80036; stroke-width: 1.5;" width="109" x="1421.5" y="387"/><ellipse cx="1436.5" cy="403" fill="#ADD1B2" rx="11" ry="11" style="stroke: #A80036; stroke-width: 1.0;"/><path d="M1439.2656,398.875 Q1439.4219,398.6563 1439.6094,398.5469 Q1439.7969,398.4375 1440.0156,398.4375 Q1440.3906,398.4375 1440.625,398.6953 Q1440.8594,398.9531 1440.8594,399.5625 L1440.8594,401.0156 Q1440.8594,401.625 1440.625,401.8906 Q1440.3906,402.1563 1440.0156,402.1563 Q1439.6719,402.1563 1439.4688,401.9531 Q1439.2656,401.7656 1439.1563,401.25 Q1439.1094,400.8906 1438.9219,400.7031 Q1438.5938,400.3281 1437.9844,400.1094 Q1437.375,399.8906 1436.75,399.8906 Q1435.9844,399.8906 1435.3516,400.2188 Q1434.7188,400.5469 1434.2266,401.2969 Q1433.7344,402.0469 1433.7344,403.0781 L1433.7344,404.1719 Q1433.7344,405.4063 1434.625,406.2266 Q1435.5156,407.0469 1437.1094,407.0469 Q1438.0469,407.0469 1438.7031,406.7969 Q1439.0938,406.6406 1439.5156,406.2031 Q1439.7813,405.9375 1439.9297,405.8594 Q1440.0781,405.7813 1440.2813,405.7813 Q1440.6094,405.7813 1440.8672,406.0391 Q1441.125,406.2969 1441.125,406.6406 Q1441.125,406.9844 1440.7813,407.3906 Q1440.2813,407.9688 1439.4844,408.2969 Q1438.4063,408.75 1437.1094,408.75 Q1435.5938,408.75 1434.3906,408.125 Q1433.4063,407.625 1432.7188,406.5547 Q1432.0313,405.4844 1432.0313,404.2031 L1432.0313,403.0469 Q1432.0313,401.7188 1432.6484,400.5703 Q1433.2656,399.4219 1434.3594,398.8047 Q1435.4531,398.1875 1436.6875,398.1875 Q1437.4219,398.1875 1438.0703,398.3516 Q1438.7188,398.5156 1439.2656,398.875 Z "/><text fill="#000000" font-family="sans-serif" font-size="12" lengthAdjust="spacingAndGlyphs" textLength="77" x="1450.5" y="407.9102">Administrador</text><line style="stroke: #A80036; stroke-width: 1.5;" x1="1422.5" x2="1529.5" y1="419" y2="419"/><line style="stroke: #A80036; stroke-width: 1.5;" x1="1422.5" x2="1529.5" y1="427" y2="427"/><!--MD5=[7560274dc4d8b0cfc2c0496e7291d5fc]
class Album--><rect fill="#FEFECE" filter="url(#fykqy3lnuuxkr)" height="61.8359" id="Album" style="stroke: #A80036; stroke-width: 1.5;" width="118" x="498" y="1227"/><ellipse cx="535.95" cy="1243" fill="#ADD1B2" rx="11" ry="11" style="stroke: #A80036; stroke-width: 1.0;"/><path d="M538.7156,1238.875 Q538.8719,1238.6563 539.0594,1238.5469 Q539.2469,1238.4375 539.4656,1238.4375 Q539.8406,1238.4375 540.075,1238.6953 Q540.3094,1238.9531 540.3094,1239.5625 L540.3094,1241.0156 Q540.3094,1241.625 540.075,1241.8906 Q539.8406,1242.1563 539.4656,1242.1563 Q539.1219,1242.1563 538.9188,1241.9531 Q538.7156,1241.7656 538.6063,1241.25 Q538.5594,1240.8906 538.3719,1240.7031 Q538.0438,1240.3281 537.4344,1240.1094 Q536.825,1239.8906 536.2,1239.8906 Q535.4344,1239.8906 534.8016,1240.2188 Q534.1688,1240.5469 533.6766,1241.2969 Q533.1844,1242.0469 533.1844,1243.0781 L533.1844,1244.1719 Q533.1844,1245.4063 534.075,1246.2266 Q534.9656,1247.0469 536.5594,1247.0469 Q537.4969,1247.0469 538.1531,1246.7969 Q538.5438,1246.6406 538.9656,1246.2031 Q539.2313,1245.9375 539.3797,1245.8594 Q539.5281,1245.7813 539.7313,1245.7813 Q540.0594,1245.7813 540.3172,1246.0391 Q540.575,1246.2969 540.575,1246.6406 Q540.575,1246.9844 540.2313,1247.3906 Q539.7313,1247.9688 538.9344,1248.2969 Q537.8563,1248.75 536.5594,1248.75 Q535.0438,1248.75 533.8406,1248.125 Q532.8563,1247.625 532.1688,1246.5547 Q531.4813,1245.4844 531.4813,1244.2031 L531.4813,1243.0469 Q531.4813,1241.7188 532.0984,1240.5703 Q532.7156,1239.4219 533.8094,1238.8047 Q534.9031,1238.1875 536.1375,1238.1875 Q536.8719,1238.1875 537.5203,1238.3516 Q538.1688,1238.5156 538.7156,1238.875 Z "/><text fill="#000000" font-family="sans-serif" font-size="12" lengthAdjust="spacingAndGlyphs" textLength="35" x="555.05" y="1247.9102">Album</text><line style="stroke: #A80036; stroke-width: 1.5;" x1="499" x2="615" y1="1259" y2="1259"/><text fill="#000000" font-family="sans-serif" font-size="11" lengthAdjust="spacingAndGlyphs" textLength="106" x="504" y="1274.4189">List&lt;Musica&gt; musicas</text><line style="stroke: #A80036; stroke-width: 1.5;" x1="499" x2="615" y1="1280.8359" y2="1280.8359"/><!--MD5=[17f253dd83c370255a059fc7ad56c447]
class Midia--><rect fill="#FEFECE" filter="url(#fykqy3lnuuxkr)" height="214.0313" id="Midia" style="stroke: #A80036; stroke-width: 1.5;" width="94" x="706" y="692"/><ellipse cx="735.85" cy="708" fill="#A9DCDF" rx="11" ry="11" style="stroke: #A80036; stroke-width: 1.0;"/><path d="M738.0375,709.7656 L733.8969,709.7656 L733.475,710.7969 L733.8969,710.7969 Q734.5063,710.7969 734.7719,711.0313 Q735.0375,711.2656 735.0375,711.6563 Q735.0375,712.0313 734.7719,712.2656 Q734.5063,712.5 733.8969,712.5 L731.6,712.5 Q730.9906,712.5 730.7328,712.2656 Q730.475,712.0313 730.475,711.6406 Q730.475,711.2656 730.7484,711.0234 Q731.0219,710.7813 731.6469,710.7969 L734.3188,704.1406 L733.2094,704.1406 Q732.6,704.1406 732.3344,703.9063 Q732.0688,703.6719 732.0688,703.2813 Q732.0688,702.9063 732.3344,702.6719 Q732.6,702.4375 733.2094,702.4375 L736.8813,702.4375 L740.2719,710.7969 Q740.8656,710.7969 741.0531,710.9375 Q741.4438,711.2031 741.4438,711.6563 Q741.4438,712.0313 741.1859,712.2656 Q740.9281,712.5 740.3188,712.5 L738.0219,712.5 Q737.4125,712.5 737.1469,712.2656 Q736.8813,712.0313 736.8813,711.6406 Q736.8813,711.2656 737.1469,711.0313 Q737.4125,710.7969 738.0219,710.7969 L738.4438,710.7969 L738.0375,709.7656 Z M737.3188,708.0625 L735.9594,704.6875 L734.5844,708.0625 L737.3188,708.0625 Z "/><text fill="#000000" font-family="sans-serif" font-size="12" font-style="italic" lengthAdjust="spacingAndGlyphs" textLength="29" x="753.15" y="712.9102">Midia</text><line style="stroke: #A80036; stroke-width: 1.5;" x1="707" x2="799" y1="724" y2="724"/><text fill="#000000" font-family="sans-serif" font-size="11" lengthAdjust="spacingAndGlyphs" textLength="26" x="712" y="739.4189">nome</text><text fill="#000000" font-family="sans-serif" font-size="11" lengthAdjust="spacingAndGlyphs" textLength="48" x="712" y="753.2549">descricao</text><text fill="#000000" font-family="sans-serif" font-size="11" lengthAdjust="spacingAndGlyphs" textLength="36" x="712" y="767.0908">imagem</text><text fill="#000000" font-family="sans-serif" font-size="11" lengthAdjust="spacingAndGlyphs" textLength="28" x="712" y="780.9268">preco</text><text fill="#000000" font-family="sans-serif" font-size="11" lengthAdjust="spacingAndGlyphs" textLength="37" x="712" y="794.7627">autores</text><text fill="#000000" font-family="sans-serif" font-size="11" lengthAdjust="spacingAndGlyphs" textLength="45" x="712" y="808.5986">conteudo</text><text fill="#000000" font-family="sans-serif" font-size="11" lengthAdjust="spacingAndGlyphs" textLength="58" x="712" y="822.4346">dataCriacao</text><text fill="#000000" font-family="sans-serif" font-size="11" lengthAdjust="spacingAndGlyphs" textLength="82" x="712" y="836.2705">pagavel: boolean</text><line style="stroke: #A80036; stroke-width: 1.0;" x1="707" x2="799" y1="842.6875" y2="842.6875"/><text fill="#000000" font-family="sans-serif" font-size="11" lengthAdjust="spacingAndGlyphs" textLength="54" x="712" y="858.1064">visualizar()</text><text fill="#000000" font-family="sans-serif" font-size="11" lengthAdjust="spacingAndGlyphs" textLength="48" x="712" y="871.9424">comprar()</text><text fill="#000000" font-family="sans-serif" font-size="11" lengthAdjust="spacingAndGlyphs" textLength="42" x="712" y="885.7783">vender()</text><text fill="#000000" font-family="sans-serif" font-size="11" lengthAdjust="spacingAndGlyphs" textLength="56" x="712" y="899.6143">download()</text><!--MD5=[fbbb13a747cf4d9626dbd92a2c7c5b05]
class MidiaPlayer--><rect fill="#FEFECE" filter="url(#fykqy3lnuuxkr)" height="75.6719" id="MidiaPlayer" style="stroke: #A80036; stroke-width: 1.5;" width="96" x="611" y="967"/><ellipse cx="626" cy="983" fill="#A9DCDF" rx="11" ry="11" style="stroke: #A80036; stroke-width: 1.0;"/><path d="M628.1875,984.7656 L624.0469,984.7656 L623.625,985.7969 L624.0469,985.7969 Q624.6563,985.7969 624.9219,986.0313 Q625.1875,986.2656 625.1875,986.6563 Q625.1875,987.0313 624.9219,987.2656 Q624.6563,987.5 624.0469,987.5 L621.75,987.5 Q621.1406,987.5 620.8828,987.2656 Q620.625,987.0313 620.625,986.6406 Q620.625,986.2656 620.8984,986.0234 Q621.1719,985.7813 621.7969,985.7969 L624.4688,979.1406 L623.3594,979.1406 Q622.75,979.1406 622.4844,978.9063 Q622.2188,978.6719 622.2188,978.2813 Q622.2188,977.9063 622.4844,977.6719 Q622.75,977.4375 623.3594,977.4375 L627.0313,977.4375 L630.4219,985.7969 Q631.0156,985.7969 631.2031,985.9375 Q631.5938,986.2031 631.5938,986.6563 Q631.5938,987.0313 631.3359,987.2656 Q631.0781,987.5 630.4688,987.5 L628.1719,987.5 Q627.5625,987.5 627.2969,987.2656 Q627.0313,987.0313 627.0313,986.6406 Q627.0313,986.2656 627.2969,986.0313 Q627.5625,985.7969 628.1719,985.7969 L628.5938,985.7969 L628.1875,984.7656 Z M627.4688,983.0625 L626.1094,979.6875 L624.7344,983.0625 L627.4688,983.0625 Z "/><text fill="#000000" font-family="sans-serif" font-size="12" font-style="italic" lengthAdjust="spacingAndGlyphs" textLength="64" x="640" y="987.9102">MidiaPlayer</text><line style="stroke: #A80036; stroke-width: 1.5;" x1="612" x2="706" y1="999" y2="999"/><text fill="#000000" font-family="sans-serif" font-size="11" lengthAdjust="spacingAndGlyphs" textLength="40" x="617" y="1014.4189">duracao</text><line style="stroke: #A80036; stroke-width: 1.5;" x1="612" x2="706" y1="1020.8359" y2="1020.8359"/><text fill="#000000" font-family="sans-serif" font-size="11" lengthAdjust="spacingAndGlyphs" textLength="51" x="617" y="1036.2549">executar()</text><!--MD5=[055ae584e8f48d8fc3c3de49aadf0637]
class Dashboard--><rect fill="#FEFECE" filter="url(#fykqy3lnuuxkr)" height="53.8359" id="Dashboard" style="stroke: #A80036; stroke-width: 1.5;" width="118" x="1417" y="559"/><ellipse cx="1442.8" cy="575" fill="#ADD1B2" rx="11" ry="11" style="stroke: #A80036; stroke-width: 1.0;"/><path d="M1445.5656,570.875 Q1445.7219,570.6563 1445.9094,570.5469 Q1446.0969,570.4375 1446.3156,570.4375 Q1446.6906,570.4375 1446.925,570.6953 Q1447.1594,570.9531 1447.1594,571.5625 L1447.1594,573.0156 Q1447.1594,573.625 1446.925,573.8906 Q1446.6906,574.1563 1446.3156,574.1563 Q1445.9719,574.1563 1445.7688,573.9531 Q1445.5656,573.7656 1445.4563,573.25 Q1445.4094,572.8906 1445.2219,572.7031 Q1444.8938,572.3281 1444.2844,572.1094 Q1443.675,571.8906 1443.05,571.8906 Q1442.2844,571.8906 1441.6516,572.2188 Q1441.0188,572.5469 1440.5266,573.2969 Q1440.0344,574.0469 1440.0344,575.0781 L1440.0344,576.1719 Q1440.0344,577.4063 1440.925,578.2266 Q1441.8156,579.0469 1443.4094,579.0469 Q1444.3469,579.0469 1445.0031,578.7969 Q1445.3938,578.6406 1445.8156,578.2031 Q1446.0813,577.9375 1446.2297,577.8594 Q1446.3781,577.7813 1446.5813,577.7813 Q1446.9094,577.7813 1447.1672,578.0391 Q1447.425,578.2969 1447.425,578.6406 Q1447.425,578.9844 1447.0813,579.3906 Q1446.5813,579.9688 1445.7844,580.2969 Q1444.7063,580.75 1443.4094,580.75 Q1441.8938,580.75 1440.6906,580.125 Q1439.7063,579.625 1439.0188,578.5547 Q1438.3313,577.4844 1438.3313,576.2031 L1438.3313,575.0469 Q1438.3313,573.7188 1438.9484,572.5703 Q1439.5656,571.4219 1440.6594,570.8047 Q1441.7531,570.1875 1442.9875,570.1875 Q1443.7219,570.1875 1444.3703,570.3516 Q1445.0188,570.5156 1445.5656,570.875 Z "/><text fill="#000000" font-family="sans-serif" font-size="12" lengthAdjust="spacingAndGlyphs" textLength="62" x="1459.2" y="579.9102">Dashboard</text><line style="stroke: #A80036; stroke-width: 1.5;" x1="1418" x2="1534" y1="591" y2="591"/><text fill="#000000" font-family="sans-serif" font-size="11" lengthAdjust="spacingAndGlyphs" textLength="106" x="1423" y="606.4189">acompanharVendas()</text><!--MD5=[f45ed34e1fd2d44e62b0a8e0606f603d]
class Livro--><rect fill="#FEFECE" filter="url(#fykqy3lnuuxkr)" height="75.6719" id="Livro" style="stroke: #A80036; stroke-width: 1.5;" width="86" x="742" y="967"/><ellipse cx="769.6" cy="983" fill="#ADD1B2" rx="11" ry="11" style="stroke: #A80036; stroke-width: 1.0;"/><path d="M772.3656,978.875 Q772.5219,978.6563 772.7094,978.5469 Q772.8969,978.4375 773.1156,978.4375 Q773.4906,978.4375 773.725,978.6953 Q773.9594,978.9531 773.9594,979.5625 L773.9594,981.0156 Q773.9594,981.625 773.725,981.8906 Q773.4906,982.1563 773.1156,982.1563 Q772.7719,982.1563 772.5688,981.9531 Q772.3656,981.7656 772.2563,981.25 Q772.2094,980.8906 772.0219,980.7031 Q771.6938,980.3281 771.0844,980.1094 Q770.475,979.8906 769.85,979.8906 Q769.0844,979.8906 768.4516,980.2188 Q767.8188,980.5469 767.3266,981.2969 Q766.8344,982.0469 766.8344,983.0781 L766.8344,984.1719 Q766.8344,985.4063 767.725,986.2266 Q768.6156,987.0469 770.2094,987.0469 Q771.1469,987.0469 771.8031,986.7969 Q772.1938,986.6406 772.6156,986.2031 Q772.8813,985.9375 773.0297,985.8594 Q773.1781,985.7813 773.3813,985.7813 Q773.7094,985.7813 773.9672,986.0391 Q774.225,986.2969 774.225,986.6406 Q774.225,986.9844 773.8813,987.3906 Q773.3813,987.9688 772.5844,988.2969 Q771.5063,988.75 770.2094,988.75 Q768.6938,988.75 767.4906,988.125 Q766.5063,987.625 765.8188,986.5547 Q765.1313,985.4844 765.1313,984.2031 L765.1313,983.0469 Q765.1313,981.7188 765.7484,980.5703 Q766.3656,979.4219 767.4594,978.8047 Q768.5531,978.1875 769.7875,978.1875 Q770.5219,978.1875 771.1703,978.3516 Q771.8188,978.5156 772.3656,978.875 Z "/><text fill="#000000" font-family="sans-serif" font-size="12" lengthAdjust="spacingAndGlyphs" textLength="26" x="786.4" y="987.9102">Livro</text><line style="stroke: #A80036; stroke-width: 1.5;" x1="743" x2="827" y1="999" y2="999"/><text fill="#000000" font-family="sans-serif" font-size="11" lengthAdjust="spacingAndGlyphs" textLength="74" x="748" y="1014.4189">numeroPaginas</text><text fill="#000000" font-family="sans-serif" font-size="11" lengthAdjust="spacingAndGlyphs" textLength="51" x="748" y="1028.2549">categorias</text><line style="stroke: #A80036; stroke-width: 1.5;" x1="743" x2="827" y1="1034.6719" y2="1034.6719"/><!--MD5=[2927a630b13e88512b2d3b16c23c7e23]
class Musica--><rect fill="#FEFECE" filter="url(#fykqy3lnuuxkr)" height="61.8359" id="Musica" style="stroke: #A80036; stroke-width: 1.5;" width="71" x="521.5" y="1104"/><ellipse cx="536.5" cy="1120" fill="#ADD1B2" rx="11" ry="11" style="stroke: #A80036; stroke-width: 1.0;"/><path d="M539.2656,1115.875 Q539.4219,1115.6563 539.6094,1115.5469 Q539.7969,1115.4375 540.0156,1115.4375 Q540.3906,1115.4375 540.625,1115.6953 Q540.8594,1115.9531 540.8594,1116.5625 L540.8594,1118.0156 Q540.8594,1118.625 540.625,1118.8906 Q540.3906,1119.1563 540.0156,1119.1563 Q539.6719,1119.1563 539.4688,1118.9531 Q539.2656,1118.7656 539.1563,1118.25 Q539.1094,1117.8906 538.9219,1117.7031 Q538.5938,1117.3281 537.9844,1117.1094 Q537.375,1116.8906 536.75,1116.8906 Q535.9844,1116.8906 535.3516,1117.2188 Q534.7188,1117.5469 534.2266,1118.2969 Q533.7344,1119.0469 533.7344,1120.0781 L533.7344,1121.1719 Q533.7344,1122.4063 534.625,1123.2266 Q535.5156,1124.0469 537.1094,1124.0469 Q538.0469,1124.0469 538.7031,1123.7969 Q539.0938,1123.6406 539.5156,1123.2031 Q539.7813,1122.9375 539.9297,1122.8594 Q540.0781,1122.7813 540.2813,1122.7813 Q540.6094,1122.7813 540.8672,1123.0391 Q541.125,1123.2969 541.125,1123.6406 Q541.125,1123.9844 540.7813,1124.3906 Q540.2813,1124.9688 539.4844,1125.2969 Q538.4063,1125.75 537.1094,1125.75 Q535.5938,1125.75 534.3906,1125.125 Q533.4063,1124.625 532.7188,1123.5547 Q532.0313,1122.4844 532.0313,1121.2031 L532.0313,1120.0469 Q532.0313,1118.7188 532.6484,1117.5703 Q533.2656,1116.4219 534.3594,1115.8047 Q535.4531,1115.1875 536.6875,1115.1875 Q537.4219,1115.1875 538.0703,1115.3516 Q538.7188,1115.5156 539.2656,1115.875 Z "/><text fill="#000000" font-family="sans-serif" font-size="12" lengthAdjust="spacingAndGlyphs" textLength="39" x="550.5" y="1124.9102">Musica</text><line style="stroke: #A80036; stroke-width: 1.5;" x1="522.5" x2="591.5" y1="1136" y2="1136"/><text fill="#000000" font-family="sans-serif" font-size="11" lengthAdjust="spacingAndGlyphs" textLength="51" x="527.5" y="1151.4189">categorias</text><line style="stroke: #A80036; stroke-width: 1.5;" x1="522.5" x2="591.5" y1="1157.8359" y2="1157.8359"/><!--MD5=[166247bf81aba95c770c3b8fd8e3cb19]
class Video--><rect fill="#FEFECE" filter="url(#fykqy3lnuuxkr)" height="61.8359" id="Video" style="stroke: #A80036; stroke-width: 1.5;" width="63" x="627.5" y="1104"/><ellipse cx="642.5" cy="1120" fill="#ADD1B2" rx="11" ry="11" style="stroke: #A80036; stroke-width: 1.0;"/><path d="M645.2656,1115.875 Q645.4219,1115.6563 645.6094,1115.5469 Q645.7969,1115.4375 646.0156,1115.4375 Q646.3906,1115.4375 646.625,1115.6953 Q646.8594,1115.9531 646.8594,1116.5625 L646.8594,1118.0156 Q646.8594,1118.625 646.625,1118.8906 Q646.3906,1119.1563 646.0156,1119.1563 Q645.6719,1119.1563 645.4688,1118.9531 Q645.2656,1118.7656 645.1563,1118.25 Q645.1094,1117.8906 644.9219,1117.7031 Q644.5938,1117.3281 643.9844,1117.1094 Q643.375,1116.8906 642.75,1116.8906 Q641.9844,1116.8906 641.3516,1117.2188 Q640.7188,1117.5469 640.2266,1118.2969 Q639.7344,1119.0469 639.7344,1120.0781 L639.7344,1121.1719 Q639.7344,1122.4063 640.625,1123.2266 Q641.5156,1124.0469 643.1094,1124.0469 Q644.0469,1124.0469 644.7031,1123.7969 Q645.0938,1123.6406 645.5156,1123.2031 Q645.7813,1122.9375 645.9297,1122.8594 Q646.0781,1122.7813 646.2813,1122.7813 Q646.6094,1122.7813 646.8672,1123.0391 Q647.125,1123.2969 647.125,1123.6406 Q647.125,1123.9844 646.7813,1124.3906 Q646.2813,1124.9688 645.4844,1125.2969 Q644.4063,1125.75 643.1094,1125.75 Q641.5938,1125.75 640.3906,1125.125 Q639.4063,1124.625 638.7188,1123.5547 Q638.0313,1122.4844 638.0313,1121.2031 L638.0313,1120.0469 Q638.0313,1118.7188 638.6484,1117.5703 Q639.2656,1116.4219 640.3594,1115.8047 Q641.4531,1115.1875 642.6875,1115.1875 Q643.4219,1115.1875 644.0703,1115.3516 Q644.7188,1115.5156 645.2656,1115.875 Z "/><text fill="#000000" font-family="sans-serif" font-size="12" lengthAdjust="spacingAndGlyphs" textLength="31" x="656.5" y="1124.9102">Video</text><line style="stroke: #A80036; stroke-width: 1.5;" x1="628.5" x2="689.5" y1="1136" y2="1136"/><text fill="#000000" font-family="sans-serif" font-size="11" lengthAdjust="spacingAndGlyphs" textLength="51" x="633.5" y="1151.4189">categorias</text><line style="stroke: #A80036; stroke-width: 1.5;" x1="628.5" x2="689.5" y1="1157.8359" y2="1157.8359"/><!--MD5=[148499297b6f36812855c8d7dd33a717]
class Podcast--><rect fill="#FEFECE" filter="url(#fykqy3lnuuxkr)" height="61.8359" id="Podcast" style="stroke: #A80036; stroke-width: 1.5;" width="77" x="725.5" y="1104"/><ellipse cx="740.5" cy="1120" fill="#ADD1B2" rx="11" ry="11" style="stroke: #A80036; stroke-width: 1.0;"/><path d="M743.2656,1115.875 Q743.4219,1115.6563 743.6094,1115.5469 Q743.7969,1115.4375 744.0156,1115.4375 Q744.3906,1115.4375 744.625,1115.6953 Q744.8594,1115.9531 744.8594,1116.5625 L744.8594,1118.0156 Q744.8594,1118.625 744.625,1118.8906 Q744.3906,1119.1563 744.0156,1119.1563 Q743.6719,1119.1563 743.4688,1118.9531 Q743.2656,1118.7656 743.1563,1118.25 Q743.1094,1117.8906 742.9219,1117.7031 Q742.5938,1117.3281 741.9844,1117.1094 Q741.375,1116.8906 740.75,1116.8906 Q739.9844,1116.8906 739.3516,1117.2188 Q738.7188,1117.5469 738.2266,1118.2969 Q737.7344,1119.0469 737.7344,1120.0781 L737.7344,1121.1719 Q737.7344,1122.4063 738.625,1123.2266 Q739.5156,1124.0469 741.1094,1124.0469 Q742.0469,1124.0469 742.7031,1123.7969 Q743.0938,1123.6406 743.5156,1123.2031 Q743.7813,1122.9375 743.9297,1122.8594 Q744.0781,1122.7813 744.2813,1122.7813 Q744.6094,1122.7813 744.8672,1123.0391 Q745.125,1123.2969 745.125,1123.6406 Q745.125,1123.9844 744.7813,1124.3906 Q744.2813,1124.9688 743.4844,1125.2969 Q742.4063,1125.75 741.1094,1125.75 Q739.5938,1125.75 738.3906,1125.125 Q737.4063,1124.625 736.7188,1123.5547 Q736.0313,1122.4844 736.0313,1121.2031 L736.0313,1120.0469 Q736.0313,1118.7188 736.6484,1117.5703 Q737.2656,1116.4219 738.3594,1115.8047 Q739.4531,1115.1875 740.6875,1115.1875 Q741.4219,1115.1875 742.0703,1115.3516 Q742.7188,1115.5156 743.2656,1115.875 Z "/><text fill="#000000" font-family="sans-serif" font-size="12" lengthAdjust="spacingAndGlyphs" textLength="45" x="754.5" y="1124.9102">Podcast</text><line style="stroke: #A80036; stroke-width: 1.5;" x1="726.5" x2="801.5" y1="1136" y2="1136"/><text fill="#000000" font-family="sans-serif" font-size="11" lengthAdjust="spacingAndGlyphs" textLength="51" x="731.5" y="1151.4189">categorias</text><line style="stroke: #A80036; stroke-width: 1.5;" x1="726.5" x2="801.5" y1="1157.8359" y2="1157.8359"/><!--MD5=[7b7d686d3dc2c644927357cb508758fd]
class Autor--><rect fill="#FEFECE" filter="url(#fykqy3lnuuxkr)" height="48" id="Autor" style="stroke: #A80036; stroke-width: 1.5;" width="60" x="1071" y="562"/><ellipse cx="1086" cy="578" fill="#ADD1B2" rx="11" ry="11" style="stroke: #A80036; stroke-width: 1.0;"/><path d="M1088.7656,573.875 Q1088.9219,573.6563 1089.1094,573.5469 Q1089.2969,573.4375 1089.5156,573.4375 Q1089.8906,573.4375 1090.125,573.6953 Q1090.3594,573.9531 1090.3594,574.5625 L1090.3594,576.0156 Q1090.3594,576.625 1090.125,576.8906 Q1089.8906,577.1563 1089.5156,577.1563 Q1089.1719,577.1563 1088.9688,576.9531 Q1088.7656,576.7656 1088.6563,576.25 Q1088.6094,575.8906 1088.4219,575.7031 Q1088.0938,575.3281 1087.4844,575.1094 Q1086.875,574.8906 1086.25,574.8906 Q1085.4844,574.8906 1084.8516,575.2188 Q1084.2188,575.5469 1083.7266,576.2969 Q1083.2344,577.0469 1083.2344,578.0781 L1083.2344,579.1719 Q1083.2344,580.4063 1084.125,581.2266 Q1085.0156,582.0469 1086.6094,582.0469 Q1087.5469,582.0469 1088.2031,581.7969 Q1088.5938,581.6406 1089.0156,581.2031 Q1089.2813,580.9375 1089.4297,580.8594 Q1089.5781,580.7813 1089.7813,580.7813 Q1090.1094,580.7813 1090.3672,581.0391 Q1090.625,581.2969 1090.625,581.6406 Q1090.625,581.9844 1090.2813,582.3906 Q1089.7813,582.9688 1088.9844,583.2969 Q1087.9063,583.75 1086.6094,583.75 Q1085.0938,583.75 1083.8906,583.125 Q1082.9063,582.625 1082.2188,581.5547 Q1081.5313,580.4844 1081.5313,579.2031 L1081.5313,578.0469 Q1081.5313,576.7188 1082.1484,575.5703 Q1082.7656,574.4219 1083.8594,573.8047 Q1084.9531,573.1875 1086.1875,573.1875 Q1086.9219,573.1875 1087.5703,573.3516 Q1088.2188,573.5156 1088.7656,573.875 Z "/><text fill="#000000" font-family="sans-serif" font-size="12" lengthAdjust="spacingAndGlyphs" textLength="28" x="1100" y="582.9102">Autor</text><line style="stroke: #A80036; stroke-width: 1.5;" x1="1072" x2="1130" y1="594" y2="594"/><line style="stroke: #A80036; stroke-width: 1.5;" x1="1072" x2="1130" y1="602" y2="602"/><!--MD5=[8e9e303d7ff1f3a3dcedda7eeca45588]
class VisualizarMidia--><rect fill="#FEFECE" filter="url(#fykqy3lnuuxkr)" height="56.1875" id="VisualizarMidia" style="stroke: #A80036; stroke-width: 1.5;" width="116" x="1181" y="8"/><ellipse cx="1196" cy="28.0938" fill="#B4A7E5" rx="11" ry="11" style="stroke: #A80036; stroke-width: 1.0;"/><path d="M1196.9531,24.7344 L1196.9531,31.3906 L1198.6719,31.3906 Q1199.2813,31.3906 1199.5469,31.625 Q1199.8125,31.8594 1199.8125,32.25 Q1199.8125,32.625 1199.5469,32.8594 Q1199.2813,33.0938 1198.6719,33.0938 L1193.5313,33.0938 Q1192.9219,33.0938 1192.6563,32.8594 Q1192.3906,32.625 1192.3906,32.2344 Q1192.3906,31.8594 1192.6563,31.625 Q1192.9219,31.3906 1193.5313,31.3906 L1195.25,31.3906 L1195.25,24.7344 L1193.5313,24.7344 Q1192.9219,24.7344 1192.6563,24.5 Q1192.3906,24.2656 1192.3906,23.875 Q1192.3906,23.5 1192.6563,23.2656 Q1192.9219,23.0313 1193.5313,23.0313 L1198.6719,23.0313 Q1199.2813,23.0313 1199.5469,23.2656 Q1199.8125,23.5 1199.8125,23.875 Q1199.8125,24.2656 1199.5469,24.5 Q1199.2813,24.7344 1198.6719,24.7344 L1196.9531,24.7344 Z "/><text fill="#000000" font-family="sans-serif" font-size="12" font-style="italic" lengthAdjust="spacingAndGlyphs" textLength="62" x="1221" y="25.457">«Interface»</text><text fill="#000000" font-family="sans-serif" font-size="12" font-style="italic" lengthAdjust="spacingAndGlyphs" textLength="84" x="1210" y="40.5508">VisualizarMidia</text><line style="stroke: #A80036; stroke-width: 1.5;" x1="1182" x2="1296" y1="48.1875" y2="48.1875"/><line style="stroke: #A80036; stroke-width: 1.5;" x1="1182" x2="1296" y1="56.1875" y2="56.1875"/><!--MD5=[69e63c8801ad5c0986bc7f3f77b25913]
class RemoverMidia--><rect fill="#FEFECE" filter="url(#fykqy3lnuuxkr)" height="56.1875" id="RemoverMidia" style="stroke: #A80036; stroke-width: 1.5;" width="112" x="1312" y="183.5"/><ellipse cx="1327" cy="203.5938" fill="#B4A7E5" rx="11" ry="11" style="stroke: #A80036; stroke-width: 1.0;"/><path d="M1327.9531,200.2344 L1327.9531,206.8906 L1329.6719,206.8906 Q1330.2813,206.8906 1330.5469,207.125 Q1330.8125,207.3594 1330.8125,207.75 Q1330.8125,208.125 1330.5469,208.3594 Q1330.2813,208.5938 1329.6719,208.5938 L1324.5313,208.5938 Q1323.9219,208.5938 1323.6563,208.3594 Q1323.3906,208.125 1323.3906,207.7344 Q1323.3906,207.3594 1323.6563,207.125 Q1323.9219,206.8906 1324.5313,206.8906 L1326.25,206.8906 L1326.25,200.2344 L1324.5313,200.2344 Q1323.9219,200.2344 1323.6563,200 Q1323.3906,199.7656 1323.3906,199.375 Q1323.3906,199 1323.6563,198.7656 Q1323.9219,198.5313 1324.5313,198.5313 L1329.6719,198.5313 Q1330.2813,198.5313 1330.5469,198.7656 Q1330.8125,199 1330.8125,199.375 Q1330.8125,199.7656 1330.5469,200 Q1330.2813,200.2344 1329.6719,200.2344 L1327.9531,200.2344 Z "/><text fill="#000000" font-family="sans-serif" font-size="12" font-style="italic" lengthAdjust="spacingAndGlyphs" textLength="62" x="1350" y="200.957">«Interface»</text><text fill="#000000" font-family="sans-serif" font-size="12" font-style="italic" lengthAdjust="spacingAndGlyphs" textLength="80" x="1341" y="216.0508">RemoverMidia</text><line style="stroke: #A80036; stroke-width: 1.5;" x1="1313" x2="1423" y1="223.6875" y2="223.6875"/><line style="stroke: #A80036; stroke-width: 1.5;" x1="1313" x2="1423" y1="231.6875" y2="231.6875"/><!--MD5=[76676120570798196cdd558cb923afaf]
class RemoverAcademico--><rect fill="#FEFECE" filter="url(#fykqy3lnuuxkr)" height="56.1875" id="RemoverAcademico" style="stroke: #A80036; stroke-width: 1.5;" width="145" x="1459.5" y="183.5"/><ellipse cx="1474.5" cy="203.5938" fill="#B4A7E5" rx="11" ry="11" style="stroke: #A80036; stroke-width: 1.0;"/><path d="M1475.4531,200.2344 L1475.4531,206.8906 L1477.1719,206.8906 Q1477.7813,206.8906 1478.0469,207.125 Q1478.3125,207.3594 1478.3125,207.75 Q1478.3125,208.125 1478.0469,208.3594 Q1477.7813,208.5938 1477.1719,208.5938 L1472.0313,208.5938 Q1471.4219,208.5938 1471.1563,208.3594 Q1470.8906,208.125 1470.8906,207.7344 Q1470.8906,207.3594 1471.1563,207.125 Q1471.4219,206.8906 1472.0313,206.8906 L1473.75,206.8906 L1473.75,200.2344 L1472.0313,200.2344 Q1471.4219,200.2344 1471.1563,200 Q1470.8906,199.7656 1470.8906,199.375 Q1470.8906,199 1471.1563,198.7656 Q1471.4219,198.5313 1472.0313,198.5313 L1477.1719,198.5313 Q1477.7813,198.5313 1478.0469,198.7656 Q1478.3125,199 1478.3125,199.375 Q1478.3125,199.7656 1478.0469,200 Q1477.7813,200.2344 1477.1719,200.2344 L1475.4531,200.2344 Z "/><text fill="#000000" font-family="sans-serif" font-size="12" font-style="italic" lengthAdjust="spacingAndGlyphs" textLength="62" x="1514" y="200.957">«Interface»</text><text fill="#000000" font-family="sans-serif" font-size="12" font-style="italic" lengthAdjust="spacingAndGlyphs" textLength="113" x="1488.5" y="216.0508">RemoverAcademico</text><line style="stroke: #A80036; stroke-width: 1.5;" x1="1460.5" x2="1603.5" y1="223.6875" y2="223.6875"/><line style="stroke: #A80036; stroke-width: 1.5;" x1="1460.5" x2="1603.5" y1="231.6875" y2="231.6875"/><!--MD5=[5191232be2d92ca88cf7876f2dc54394]
class AtualizarMidia--><rect fill="#FEFECE" filter="url(#fykqy3lnuuxkr)" height="56.1875" id="AtualizarMidia" style="stroke: #A80036; stroke-width: 1.5;" width="110" x="1205" y="383"/><ellipse cx="1220" cy="403.0938" fill="#B4A7E5" rx="11" ry="11" style="stroke: #A80036; stroke-width: 1.0;"/><path d="M1220.9531,399.7344 L1220.9531,406.3906 L1222.6719,406.3906 Q1223.2813,406.3906 1223.5469,406.625 Q1223.8125,406.8594 1223.8125,407.25 Q1223.8125,407.625 1223.5469,407.8594 Q1223.2813,408.0938 1222.6719,408.0938 L1217.5313,408.0938 Q1216.9219,408.0938 1216.6563,407.8594 Q1216.3906,407.625 1216.3906,407.2344 Q1216.3906,406.8594 1216.6563,406.625 Q1216.9219,406.3906 1217.5313,406.3906 L1219.25,406.3906 L1219.25,399.7344 L1217.5313,399.7344 Q1216.9219,399.7344 1216.6563,399.5 Q1216.3906,399.2656 1216.3906,398.875 Q1216.3906,398.5 1216.6563,398.2656 Q1216.9219,398.0313 1217.5313,398.0313 L1222.6719,398.0313 Q1223.2813,398.0313 1223.5469,398.2656 Q1223.8125,398.5 1223.8125,398.875 Q1223.8125,399.2656 1223.5469,399.5 Q1223.2813,399.7344 1222.6719,399.7344 L1220.9531,399.7344 Z "/><text fill="#000000" font-family="sans-serif" font-size="12" font-style="italic" lengthAdjust="spacingAndGlyphs" textLength="62" x="1242" y="400.457">«Interface»</text><text fill="#000000" font-family="sans-serif" font-size="12" font-style="italic" lengthAdjust="spacingAndGlyphs" textLength="78" x="1234" y="415.5508">AtualizarMidia</text><line style="stroke: #A80036; stroke-width: 1.5;" x1="1206" x2="1314" y1="423.1875" y2="423.1875"/><line style="stroke: #A80036; stroke-width: 1.5;" x1="1206" x2="1314" y1="431.1875" y2="431.1875"/><!--MD5=[96859732366c9815bb186c7a915ddd6b]
class AdicionarCredito--><rect fill="#FEFECE" filter="url(#fykqy3lnuuxkr)" height="56.1875" id="AdicionarCredito" style="stroke: #A80036; stroke-width: 1.5;" width="124" x="843" y="8"/><ellipse cx="858" cy="28.0938" fill="#B4A7E5" rx="11" ry="11" style="stroke: #A80036; stroke-width: 1.0;"/><path d="M858.9531,24.7344 L858.9531,31.3906 L860.6719,31.3906 Q861.2813,31.3906 861.5469,31.625 Q861.8125,31.8594 861.8125,32.25 Q861.8125,32.625 861.5469,32.8594 Q861.2813,33.0938 860.6719,33.0938 L855.5313,33.0938 Q854.9219,33.0938 854.6563,32.8594 Q854.3906,32.625 854.3906,32.2344 Q854.3906,31.8594 854.6563,31.625 Q854.9219,31.3906 855.5313,31.3906 L857.25,31.3906 L857.25,24.7344 L855.5313,24.7344 Q854.9219,24.7344 854.6563,24.5 Q854.3906,24.2656 854.3906,23.875 Q854.3906,23.5 854.6563,23.2656 Q854.9219,23.0313 855.5313,23.0313 L860.6719,23.0313 Q861.2813,23.0313 861.5469,23.2656 Q861.8125,23.5 861.8125,23.875 Q861.8125,24.2656 861.5469,24.5 Q861.2813,24.7344 860.6719,24.7344 L858.9531,24.7344 Z "/><text fill="#000000" font-family="sans-serif" font-size="12" font-style="italic" lengthAdjust="spacingAndGlyphs" textLength="62" x="887" y="25.457">«Interface»</text><text fill="#000000" font-family="sans-serif" font-size="12" font-style="italic" lengthAdjust="spacingAndGlyphs" textLength="92" x="872" y="40.5508">AdicionarCredito</text><line style="stroke: #A80036; stroke-width: 1.5;" x1="844" x2="966" y1="48.1875" y2="48.1875"/><line style="stroke: #A80036; stroke-width: 1.5;" x1="844" x2="966" y1="56.1875" y2="56.1875"/><!--MD5=[681cab2b7e9218d815817911a3020f88]
class CriarAlbum--><rect fill="#FEFECE" filter="url(#fykqy3lnuuxkr)" height="56.1875" id="CriarAlbum" style="stroke: #A80036; stroke-width: 1.5;" width="96" x="1003" y="383"/><ellipse cx="1018" cy="403.0938" fill="#B4A7E5" rx="11" ry="11" style="stroke: #A80036; stroke-width: 1.0;"/><path d="M1018.9531,399.7344 L1018.9531,406.3906 L1020.6719,406.3906 Q1021.2813,406.3906 1021.5469,406.625 Q1021.8125,406.8594 1021.8125,407.25 Q1021.8125,407.625 1021.5469,407.8594 Q1021.2813,408.0938 1020.6719,408.0938 L1015.5313,408.0938 Q1014.9219,408.0938 1014.6563,407.8594 Q1014.3906,407.625 1014.3906,407.2344 Q1014.3906,406.8594 1014.6563,406.625 Q1014.9219,406.3906 1015.5313,406.3906 L1017.25,406.3906 L1017.25,399.7344 L1015.5313,399.7344 Q1014.9219,399.7344 1014.6563,399.5 Q1014.3906,399.2656 1014.3906,398.875 Q1014.3906,398.5 1014.6563,398.2656 Q1014.9219,398.0313 1015.5313,398.0313 L1020.6719,398.0313 Q1021.2813,398.0313 1021.5469,398.2656 Q1021.8125,398.5 1021.8125,398.875 Q1021.8125,399.2656 1021.5469,399.5 Q1021.2813,399.7344 1020.6719,399.7344 L1018.9531,399.7344 Z "/><text fill="#000000" font-family="sans-serif" font-size="12" font-style="italic" lengthAdjust="spacingAndGlyphs" textLength="62" x="1033" y="400.457">«Interface»</text><text fill="#000000" font-family="sans-serif" font-size="12" font-style="italic" lengthAdjust="spacingAndGlyphs" textLength="64" x="1032" y="415.5508">CriarAlbum</text><line style="stroke: #A80036; stroke-width: 1.5;" x1="1004" x2="1098" y1="423.1875" y2="423.1875"/><line style="stroke: #A80036; stroke-width: 1.5;" x1="1004" x2="1098" y1="431.1875" y2="431.1875"/><!--MD5=[593118888f2185de7ac53c01266003b1]
class VisualizarAlbum--><rect fill="#FEFECE" filter="url(#fykqy3lnuuxkr)" height="56.1875" id="VisualizarAlbum" style="stroke: #A80036; stroke-width: 1.5;" width="124" x="462" y="183.5"/><ellipse cx="477" cy="203.5938" fill="#B4A7E5" rx="11" ry="11" style="stroke: #A80036; stroke-width: 1.0;"/><path d="M477.9531,200.2344 L477.9531,206.8906 L479.6719,206.8906 Q480.2813,206.8906 480.5469,207.125 Q480.8125,207.3594 480.8125,207.75 Q480.8125,208.125 480.5469,208.3594 Q480.2813,208.5938 479.6719,208.5938 L474.5313,208.5938 Q473.9219,208.5938 473.6563,208.3594 Q473.3906,208.125 473.3906,207.7344 Q473.3906,207.3594 473.6563,207.125 Q473.9219,206.8906 474.5313,206.8906 L476.25,206.8906 L476.25,200.2344 L474.5313,200.2344 Q473.9219,200.2344 473.6563,200 Q473.3906,199.7656 473.3906,199.375 Q473.3906,199 473.6563,198.7656 Q473.9219,198.5313 474.5313,198.5313 L479.6719,198.5313 Q480.2813,198.5313 480.5469,198.7656 Q480.8125,199 480.8125,199.375 Q480.8125,199.7656 480.5469,200 Q480.2813,200.2344 479.6719,200.2344 L477.9531,200.2344 Z "/><text fill="#000000" font-family="sans-serif" font-size="12" font-style="italic" lengthAdjust="spacingAndGlyphs" textLength="62" x="506" y="200.957">«Interface»</text><text fill="#000000" font-family="sans-serif" font-size="12" font-style="italic" lengthAdjust="spacingAndGlyphs" textLength="92" x="491" y="216.0508">VisualizarAlbum</text><line style="stroke: #A80036; stroke-width: 1.5;" x1="463" x2="585" y1="223.6875" y2="223.6875"/><line style="stroke: #A80036; stroke-width: 1.5;" x1="463" x2="585" y1="231.6875" y2="231.6875"/><!--MD5=[d8a1f1755bfc1dc77104ce4882e6b10a]
class ExecutarMidiaPlayer--><rect fill="#FEFECE" filter="url(#fykqy3lnuuxkr)" height="56.1875" id="ExecutarMidiaPlayer" style="stroke: #A80036; stroke-width: 1.5;" width="144" x="1002" y="8"/><ellipse cx="1017" cy="28.0938" fill="#B4A7E5" rx="11" ry="11" style="stroke: #A80036; stroke-width: 1.0;"/><path d="M1017.9531,24.7344 L1017.9531,31.3906 L1019.6719,31.3906 Q1020.2813,31.3906 1020.5469,31.625 Q1020.8125,31.8594 1020.8125,32.25 Q1020.8125,32.625 1020.5469,32.8594 Q1020.2813,33.0938 1019.6719,33.0938 L1014.5313,33.0938 Q1013.9219,33.0938 1013.6563,32.8594 Q1013.3906,32.625 1013.3906,32.2344 Q1013.3906,31.8594 1013.6563,31.625 Q1013.9219,31.3906 1014.5313,31.3906 L1016.25,31.3906 L1016.25,24.7344 L1014.5313,24.7344 Q1013.9219,24.7344 1013.6563,24.5 Q1013.3906,24.2656 1013.3906,23.875 Q1013.3906,23.5 1013.6563,23.2656 Q1013.9219,23.0313 1014.5313,23.0313 L1019.6719,23.0313 Q1020.2813,23.0313 1020.5469,23.2656 Q1020.8125,23.5 1020.8125,23.875 Q1020.8125,24.2656 1020.5469,24.5 Q1020.2813,24.7344 1019.6719,24.7344 L1017.9531,24.7344 Z "/><text fill="#000000" font-family="sans-serif" font-size="12" font-style="italic" lengthAdjust="spacingAndGlyphs" textLength="62" x="1056" y="25.457">«Interface»</text><text fill="#000000" font-family="sans-serif" font-size="12" font-style="italic" lengthAdjust="spacingAndGlyphs" textLength="112" x="1031" y="40.5508">ExecutarMidiaPlayer</text><line style="stroke: #A80036; stroke-width: 1.5;" x1="1003" x2="1145" y1="48.1875" y2="48.1875"/><line style="stroke: #A80036; stroke-width: 1.5;" x1="1003" x2="1145" y1="56.1875" y2="56.1875"/><!--MD5=[ad72e024709ef5686dc384b5d0d22d71]
class ComprarMidia--><rect fill="#FEFECE" filter="url(#fykqy3lnuuxkr)" height="56.1875" id="ComprarMidia" style="stroke: #A80036; stroke-width: 1.5;" width="110" x="6" y="8"/><ellipse cx="21" cy="28.0938" fill="#B4A7E5" rx="11" ry="11" style="stroke: #A80036; stroke-width: 1.0;"/><path d="M21.9531,24.7344 L21.9531,31.3906 L23.6719,31.3906 Q24.2813,31.3906 24.5469,31.625 Q24.8125,31.8594 24.8125,32.25 Q24.8125,32.625 24.5469,32.8594 Q24.2813,33.0938 23.6719,33.0938 L18.5313,33.0938 Q17.9219,33.0938 17.6563,32.8594 Q17.3906,32.625 17.3906,32.2344 Q17.3906,31.8594 17.6563,31.625 Q17.9219,31.3906 18.5313,31.3906 L20.25,31.3906 L20.25,24.7344 L18.5313,24.7344 Q17.9219,24.7344 17.6563,24.5 Q17.3906,24.2656 17.3906,23.875 Q17.3906,23.5 17.6563,23.2656 Q17.9219,23.0313 18.5313,23.0313 L23.6719,23.0313 Q24.2813,23.0313 24.5469,23.2656 Q24.8125,23.5 24.8125,23.875 Q24.8125,24.2656 24.5469,24.5 Q24.2813,24.7344 23.6719,24.7344 L21.9531,24.7344 Z "/><text fill="#000000" font-family="sans-serif" font-size="12" font-style="italic" lengthAdjust="spacingAndGlyphs" textLength="62" x="43" y="25.457">«Interface»</text><text fill="#000000" font-family="sans-serif" font-size="12" font-style="italic" lengthAdjust="spacingAndGlyphs" textLength="78" x="35" y="40.5508">ComprarMidia</text><line style="stroke: #A80036; stroke-width: 1.5;" x1="7" x2="115" y1="48.1875" y2="48.1875"/><line style="stroke: #A80036; stroke-width: 1.5;" x1="7" x2="115" y1="56.1875" y2="56.1875"/><!--MD5=[b3d0b2517cc0b83c74ea63e498083d4b]
class VenderMidia--><rect fill="#FEFECE" filter="url(#fykqy3lnuuxkr)" height="56.1875" id="VenderMidia" style="stroke: #A80036; stroke-width: 1.5;" width="101" x="151.5" y="8"/><ellipse cx="166.5" cy="28.0938" fill="#B4A7E5" rx="11" ry="11" style="stroke: #A80036; stroke-width: 1.0;"/><path d="M167.4531,24.7344 L167.4531,31.3906 L169.1719,31.3906 Q169.7813,31.3906 170.0469,31.625 Q170.3125,31.8594 170.3125,32.25 Q170.3125,32.625 170.0469,32.8594 Q169.7813,33.0938 169.1719,33.0938 L164.0313,33.0938 Q163.4219,33.0938 163.1563,32.8594 Q162.8906,32.625 162.8906,32.2344 Q162.8906,31.8594 163.1563,31.625 Q163.4219,31.3906 164.0313,31.3906 L165.75,31.3906 L165.75,24.7344 L164.0313,24.7344 Q163.4219,24.7344 163.1563,24.5 Q162.8906,24.2656 162.8906,23.875 Q162.8906,23.5 163.1563,23.2656 Q163.4219,23.0313 164.0313,23.0313 L169.1719,23.0313 Q169.7813,23.0313 170.0469,23.2656 Q170.3125,23.5 170.3125,23.875 Q170.3125,24.2656 170.0469,24.5 Q169.7813,24.7344 169.1719,24.7344 L167.4531,24.7344 Z "/><text fill="#000000" font-family="sans-serif" font-size="12" font-style="italic" lengthAdjust="spacingAndGlyphs" textLength="62" x="184" y="25.457">«Interface»</text><text fill="#000000" font-family="sans-serif" font-size="12" font-style="italic" lengthAdjust="spacingAndGlyphs" textLength="69" x="180.5" y="40.5508">VenderMidia</text><line style="stroke: #A80036; stroke-width: 1.5;" x1="152.5" x2="251.5" y1="48.1875" y2="48.1875"/><line style="stroke: #A80036; stroke-width: 1.5;" x1="152.5" x2="251.5" y1="56.1875" y2="56.1875"/><!--MD5=[24306329126c5584c86443868fe701a7]
class DownloadMidia--><rect fill="#FEFECE" filter="url(#fykqy3lnuuxkr)" height="56.1875" id="DownloadMidia" style="stroke: #A80036; stroke-width: 1.5;" width="116" x="288" y="8"/><ellipse cx="303" cy="28.0938" fill="#B4A7E5" rx="11" ry="11" style="stroke: #A80036; stroke-width: 1.0;"/><path d="M303.9531,24.7344 L303.9531,31.3906 L305.6719,31.3906 Q306.2813,31.3906 306.5469,31.625 Q306.8125,31.8594 306.8125,32.25 Q306.8125,32.625 306.5469,32.8594 Q306.2813,33.0938 305.6719,33.0938 L300.5313,33.0938 Q299.9219,33.0938 299.6563,32.8594 Q299.3906,32.625 299.3906,32.2344 Q299.3906,31.8594 299.6563,31.625 Q299.9219,31.3906 300.5313,31.3906 L302.25,31.3906 L302.25,24.7344 L300.5313,24.7344 Q299.9219,24.7344 299.6563,24.5 Q299.3906,24.2656 299.3906,23.875 Q299.3906,23.5 299.6563,23.2656 Q299.9219,23.0313 300.5313,23.0313 L305.6719,23.0313 Q306.2813,23.0313 306.5469,23.2656 Q306.8125,23.5 306.8125,23.875 Q306.8125,24.2656 306.5469,24.5 Q306.2813,24.7344 305.6719,24.7344 L303.9531,24.7344 Z "/><text fill="#000000" font-family="sans-serif" font-size="12" font-style="italic" lengthAdjust="spacingAndGlyphs" textLength="62" x="328" y="25.457">«Interface»</text><text fill="#000000" font-family="sans-serif" font-size="12" font-style="italic" lengthAdjust="spacingAndGlyphs" textLength="84" x="317" y="40.5508">DownloadMidia</text><line style="stroke: #A80036; stroke-width: 1.5;" x1="289" x2="403" y1="48.1875" y2="48.1875"/><line style="stroke: #A80036; stroke-width: 1.5;" x1="289" x2="403" y1="56.1875" y2="56.1875"/><!--MD5=[7fdfe9cf846e8eab6166baa37cb77752]
class AdicionarMidiaEmListaFavorito--><rect fill="#FEFECE" filter="url(#fykqy3lnuuxkr)" height="56.1875" id="AdicionarMidiaEmListaFavorito" style="stroke: #A80036; stroke-width: 1.5;" width="202" x="439" y="8"/><ellipse cx="454" cy="28.0938" fill="#B4A7E5" rx="11" ry="11" style="stroke: #A80036; stroke-width: 1.0;"/><path d="M454.9531,24.7344 L454.9531,31.3906 L456.6719,31.3906 Q457.2813,31.3906 457.5469,31.625 Q457.8125,31.8594 457.8125,32.25 Q457.8125,32.625 457.5469,32.8594 Q457.2813,33.0938 456.6719,33.0938 L451.5313,33.0938 Q450.9219,33.0938 450.6563,32.8594 Q450.3906,32.625 450.3906,32.2344 Q450.3906,31.8594 450.6563,31.625 Q450.9219,31.3906 451.5313,31.3906 L453.25,31.3906 L453.25,24.7344 L451.5313,24.7344 Q450.9219,24.7344 450.6563,24.5 Q450.3906,24.2656 450.3906,23.875 Q450.3906,23.5 450.6563,23.2656 Q450.9219,23.0313 451.5313,23.0313 L456.6719,23.0313 Q457.2813,23.0313 457.5469,23.2656 Q457.8125,23.5 457.8125,23.875 Q457.8125,24.2656 457.5469,24.5 Q457.2813,24.7344 456.6719,24.7344 L454.9531,24.7344 Z "/><text fill="#000000" font-family="sans-serif" font-size="12" font-style="italic" lengthAdjust="spacingAndGlyphs" textLength="62" x="522" y="25.457">«Interface»</text><text fill="#000000" font-family="sans-serif" font-size="12" font-style="italic" lengthAdjust="spacingAndGlyphs" textLength="170" x="468" y="40.5508">AdicionarMidiaEmListaFavorito</text><line style="stroke: #A80036; stroke-width: 1.5;" x1="440" x2="640" y1="48.1875" y2="48.1875"/><line style="stroke: #A80036; stroke-width: 1.5;" x1="440" x2="640" y1="56.1875" y2="56.1875"/><!--MD5=[56730f7e5759da080ebb7b609593d0dc]
class VisualizarCreditor--><rect fill="#FEFECE" filter="url(#fykqy3lnuuxkr)" height="56.1875" id="VisualizarCreditor" style="stroke: #A80036; stroke-width: 1.5;" width="131" x="676.5" y="8"/><ellipse cx="691.5" cy="28.0938" fill="#B4A7E5" rx="11" ry="11" style="stroke: #A80036; stroke-width: 1.0;"/><path d="M692.4531,24.7344 L692.4531,31.3906 L694.1719,31.3906 Q694.7813,31.3906 695.0469,31.625 Q695.3125,31.8594 695.3125,32.25 Q695.3125,32.625 695.0469,32.8594 Q694.7813,33.0938 694.1719,33.0938 L689.0313,33.0938 Q688.4219,33.0938 688.1563,32.8594 Q687.8906,32.625 687.8906,32.2344 Q687.8906,31.8594 688.1563,31.625 Q688.4219,31.3906 689.0313,31.3906 L690.75,31.3906 L690.75,24.7344 L689.0313,24.7344 Q688.4219,24.7344 688.1563,24.5 Q687.8906,24.2656 687.8906,23.875 Q687.8906,23.5 688.1563,23.2656 Q688.4219,23.0313 689.0313,23.0313 L694.1719,23.0313 Q694.7813,23.0313 695.0469,23.2656 Q695.3125,23.5 695.3125,23.875 Q695.3125,24.2656 695.0469,24.5 Q694.7813,24.7344 694.1719,24.7344 L692.4531,24.7344 Z "/><text fill="#000000" font-family="sans-serif" font-size="12" font-style="italic" lengthAdjust="spacingAndGlyphs" textLength="62" x="724" y="25.457">«Interface»</text><text fill="#000000" font-family="sans-serif" font-size="12" font-style="italic" lengthAdjust="spacingAndGlyphs" textLength="99" x="705.5" y="40.5508">VisualizarCreditor</text><line style="stroke: #A80036; stroke-width: 1.5;" x1="677.5" x2="806.5" y1="48.1875" y2="48.1875"/><line style="stroke: #A80036; stroke-width: 1.5;" x1="677.5" x2="806.5" y1="56.1875" y2="56.1875"/><!--MD5=[d0a83700a0fb0033d841bb213107c04c]
reverse link Autor to Midia--><path d="M1101,623.329 C1101,623.329 1101,835 1101,835 C1101,835 895.445,835 800.295,835 " fill="none" id="Autor&lt;-Midia" style="stroke: #A80036; stroke-width: 1.0;"/><polygon fill="#A80036" points="1101,610.329,1097,616.329,1101,622.329,1105,616.329,1101,610.329" style="stroke: #A80036; stroke-width: 1.0;"/><text fill="#000000" font-family="sans-serif" font-size="13" lengthAdjust="spacingAndGlyphs" textLength="7" x="1093.1906" y="631.3408">1</text><text fill="#000000" font-family="sans-serif" font-size="13" lengthAdjust="spacingAndGlyphs" textLength="20" x="807.994" y="836.2791">1..*</text><!--MD5=[8ca2f7d71a4bd8549b210d3fd3446ca9]
reverse link Usuario to Midia--><path d="M835.333,311.132 C835.333,311.132 835.333,764 835.333,764 C835.333,764 818.719,764 800.417,764 " fill="none" id="Usuario&lt;-Midia" style="stroke: #A80036; stroke-width: 1.0;"/><polygon fill="#FFFFFF" points="835.333,298.132,831.333,304.132,835.333,310.132,839.333,304.132,835.333,298.132" style="stroke: #A80036; stroke-width: 1.0;"/><!--MD5=[c5cf8352f99769afe06a3910f356696c]
reverse link Academico to TipoAcademicoEnum--><path d="M746,455.286 C746,455.286 746,540.843 746,540.843 " fill="none" id="Academico&lt;-TipoAcademicoEnum" style="stroke: #A80036; stroke-width: 1.0;"/><polygon fill="#A80036" points="746,442.286,742,448.286,746,454.286,750,448.286,746,442.286" style="stroke: #A80036; stroke-width: 1.0;"/><!--MD5=[ed09cf4b4268655afeb81a9d06583233]
reverse link Usuario to TipoMidiaEnum--><path d="M860.25,311.133 C860.25,311.133 860.25,358.926 860.25,358.926 " fill="none" id="Usuario&lt;-TipoMidiaEnum" style="stroke: #A80036; stroke-width: 1.0;"/><polygon fill="#A80036" points="860.25,298.133,856.25,304.133,860.25,310.133,864.25,304.133,860.25,298.133" style="stroke: #A80036; stroke-width: 1.0;"/><!--MD5=[5d8be773900fef823bca451b2769d179]
reverse link Usuario to Academico--><path d="M746,318.133 C746,318.133 746,379.665 746,379.665 " fill="none" id="Usuario&lt;-Academico" style="stroke: #A80036; stroke-width: 1.0;"/><polygon fill="none" points="739,318.133,746,298.133,753,318.133,739,318.133" style="stroke: #A80036; stroke-width: 1.0;"/><!--MD5=[2386fb79edec01e4d2430678291cfc6c]
reverse link Academico to Autor--><path d="M835.224,411 C835.224,411 842.667,411 842.667,411 C842.667,411 842.667,586 842.667,586 C842.667,586 1002.715,586 1070.86,586 " fill="none" id="Academico&lt;-Autor" style="stroke: #A80036; stroke-width: 1.0;"/><polygon fill="none" points="835.224,418,815.224,411,835.224,404,835.224,418" style="stroke: #A80036; stroke-width: 1.0;"/><!--MD5=[39a07826a1b74c11cd6c15b957d26b5e]
reverse link Usuario to Administrador--><path d="M890.524,269 C890.524,269 1435.83,269 1435.83,269 C1435.83,269 1435.83,346.398 1435.83,386.912 " fill="none" id="Usuario&lt;-Administrador" style="stroke: #A80036; stroke-width: 1.0;"/><polygon fill="none" points="890.524,276,870.524,269,890.524,262,890.524,276" style="stroke: #A80036; stroke-width: 1.0;"/><!--MD5=[3c353f16ad6f698b146590b8140ac17b]
reverse link Midia to Livro--><path d="M771,926.224 C771,926.224 771,966.719 771,966.719 " fill="none" id="Midia&lt;-Livro" style="stroke: #A80036; stroke-width: 1.0;"/><polygon fill="none" points="764,926.224,771,906.224,778,926.224,764,926.224" style="stroke: #A80036; stroke-width: 1.0;"/><!--MD5=[82533b8c2601e7a850642b0dd72d942b]
reverse link Midia to MidiaPlayer--><path d="M716.25,926.224 C716.25,926.224 716.25,1005 716.25,1005 C716.25,1005 712.559,1005 707.052,1005 " fill="none" id="Midia&lt;-MidiaPlayer" style="stroke: #A80036; stroke-width: 1.0;"/><polygon fill="none" points="709.25,926.224,716.25,906.224,723.25,926.224,709.25,926.224" style="stroke: #A80036; stroke-width: 1.0;"/><!--MD5=[5a5467fcde532a33a1a3eb9cfff28bda]
reverse link MidiaPlayer to Musica--><path d="M621.75,1063.301 C621.75,1063.301 621.75,1135 621.75,1135 C621.75,1135 607.759,1135 592.784,1135 " fill="none" id="MidiaPlayer&lt;-Musica" style="stroke: #A80036; stroke-width: 1.0;"/><polygon fill="none" points="614.75,1063.301,621.75,1043.301,628.75,1063.301,614.75,1063.301" style="stroke: #A80036; stroke-width: 1.0;"/><!--MD5=[56f92f22368eec05e35979518733a5f3]
reverse link MidiaPlayer to Video--><path d="M659,1063.301 C659,1063.301 659,1103.955 659,1103.955 " fill="none" id="MidiaPlayer&lt;-Video" style="stroke: #A80036; stroke-width: 1.0;"/><polygon fill="none" points="652,1063.301,659,1043.301,666,1063.301,652,1063.301" style="stroke: #A80036; stroke-width: 1.0;"/><!--MD5=[177c67a363ef67bbbfca2d53a69c70b4]
reverse link MidiaPlayer to Podcast--><path d="M698.75,1063.301 C698.75,1063.301 698.75,1135 698.75,1135 C698.75,1135 711.239,1135 725.29,1135 " fill="none" id="MidiaPlayer&lt;-Podcast" style="stroke: #A80036; stroke-width: 1.0;"/><polygon fill="none" points="691.75,1063.301,698.75,1043.301,705.75,1063.301,691.75,1063.301" style="stroke: #A80036; stroke-width: 1.0;"/><!--MD5=[a97b4c173602f725213a0f665d6057da]
link Musica to Album--><path d="M557,1166.038 C557,1166.038 557,1213.9718 557,1213.9718 " fill="none" id="Musica-&gt;Album" style="stroke: #A80036; stroke-width: 1.0;"/><polygon fill="#FFFFFF" points="557,1226.9718,561,1220.9718,557,1214.9718,553,1220.9718,557,1226.9718" style="stroke: #A80036; stroke-width: 1.0;"/><text fill="#000000" font-family="sans-serif" font-size="13" lengthAdjust="spacingAndGlyphs" textLength="20" x="535.0313" y="1187.2695">1..*</text><text fill="#000000" font-family="sans-serif" font-size="13" lengthAdjust="spacingAndGlyphs" textLength="7" x="549.2344" y="1215.9859">0</text><!--MD5=[717f991cfb135c4982202eba3bb2d0b0]
reverse link VisualizarAlbum to Academico--><path d="M553.75,259.66 C553.75,259.66 553.75,411 553.75,411 C553.75,411 621.749,411 676.865,411 " fill="none" id="VisualizarAlbum&lt;-Academico" style="stroke: #A80036; stroke-width: 1.0; stroke-dasharray: 7.0,7.0;"/><polygon fill="none" points="546.75,259.66,553.75,239.66,560.75,259.66,546.75,259.66" style="stroke: #A80036; stroke-width: 1.0;"/><!--MD5=[1e8e721b24e4b8cb0f64c7cdc0eaf7d8]
reverse link CriarAlbum to Autor--><path d="M1085,459.117 C1085,459.117 1085,561.897 1085,561.897 " fill="none" id="CriarAlbum&lt;-Autor" style="stroke: #A80036; stroke-width: 1.0; stroke-dasharray: 7.0,7.0;"/><polygon fill="none" points="1078,459.117,1085,439.117,1092,459.117,1078,459.117" style="stroke: #A80036; stroke-width: 1.0;"/><!--MD5=[591089ffd8c6beaed9248fb23f9f93f3]
reverse link AdicionarCredito to Usuario--><path d="M856.75,84.2 C856.75,84.2 856.75,124.95 856.75,124.95 " fill="none" id="AdicionarCredito&lt;-Usuario" style="stroke: #A80036; stroke-width: 1.0; stroke-dasharray: 7.0,7.0;"/><polygon fill="none" points="849.75,84.2,856.75,64.2,863.75,84.2,849.75,84.2" style="stroke: #A80036; stroke-width: 1.0;"/><!--MD5=[df60da1beb4eb3b0703858cf292c43ea]
reverse link VisualizarMidia to Usuario--><path d="M1189,84.09 C1189,84.09 1189,164 1189,164 C1189,164 1001.607,164 870.579,164 " fill="none" id="VisualizarMidia&lt;-Usuario" style="stroke: #A80036; stroke-width: 1.0; stroke-dasharray: 7.0,7.0;"/><polygon fill="none" points="1182,84.09,1189,64.09,1196,84.09,1182,84.09" style="stroke: #A80036; stroke-width: 1.0;"/><!--MD5=[46cf54afc730f9585170f126fa172e17]
reverse link VisualizarMidia to Autor--><path d="M1197,84.03 C1197,84.03 1197,586 1197,586 C1197,586 1159.27,586 1131.11,586 " fill="none" id="VisualizarMidia&lt;-Autor" style="stroke: #A80036; stroke-width: 1.0; stroke-dasharray: 7.0,7.0;"/><polygon fill="none" points="1190,84.03,1197,64.03,1204,84.03,1190,84.03" style="stroke: #A80036; stroke-width: 1.0;"/><!--MD5=[8a75dfd0a35ce7fb852ef87bea9dd96d]
reverse link RemoverMidia to Autor--><path d="M1291.95,212 C1291.95,212 1109.67,212 1109.67,212 C1109.67,212 1109.67,478.873 1109.67,561.749 " fill="none" id="RemoverMidia&lt;-Autor" style="stroke: #A80036; stroke-width: 1.0; stroke-dasharray: 7.0,7.0;"/><polygon fill="none" points="1291.95,205,1311.95,212,1291.95,219,1291.95,205" style="stroke: #A80036; stroke-width: 1.0;"/><!--MD5=[a8e296ce7eaa74068a6fb8190778373a]
reverse link RemoverMidia to Administrador--><path d="M1444.19,212 C1444.19,212 1447.67,212 1447.67,212 C1447.67,212 1447.67,334.068 1447.67,386.996 " fill="none" id="RemoverMidia&lt;-Administrador" style="stroke: #A80036; stroke-width: 1.0; stroke-dasharray: 7.0,7.0;"/><polygon fill="none" points="1444.19,219,1424.19,212,1444.19,205,1444.19,219" style="stroke: #A80036; stroke-width: 1.0;"/><!--MD5=[3caf364c4c9a7c8e465e34f5f8565c22]
reverse link RemoverAcademico to Administrador--><path d="M1495,259.66 C1495,259.66 1495,386.738 1495,386.738 " fill="none" id="RemoverAcademico&lt;-Administrador" style="stroke: #A80036; stroke-width: 1.0; stroke-dasharray: 7.0,7.0;"/><polygon fill="none" points="1488,259.66,1495,239.66,1502,259.66,1488,259.66" style="stroke: #A80036; stroke-width: 1.0;"/><!--MD5=[1e22089982c670ddb0a2b40e86e4f540]
reverse link AtualizarMidia to Autor--><path d="M1184.8,411 C1184.8,411 1120.33,411 1120.33,411 C1120.33,411 1120.33,513.582 1120.33,561.667 " fill="none" id="AtualizarMidia&lt;-Autor" style="stroke: #A80036; stroke-width: 1.0; stroke-dasharray: 7.0,7.0;"/><polygon fill="none" points="1184.8,404,1204.8,411,1184.8,418,1184.8,404" style="stroke: #A80036; stroke-width: 1.0;"/><!--MD5=[4554e524f17f18162f5e2d4d8706b05b]
reverse link VisualizarCreditor to Usuario--><path d="M742,84.2 C742,84.2 742,124.95 742,124.95 " fill="none" id="VisualizarCreditor&lt;-Usuario" style="stroke: #A80036; stroke-width: 1.0; stroke-dasharray: 7.0,7.0;"/><polygon fill="none" points="735,84.2,742,64.2,749,84.2,735,84.2" style="stroke: #A80036; stroke-width: 1.0;"/><!--MD5=[cce42819dbc21aa85aeba91aaba68e8f]
reverse link AdicionarMidiaEmListaFavorito to Usuario--><path d="M631.25,84.2 C631.25,84.2 631.25,124.95 631.25,124.95 " fill="none" id="AdicionarMidiaEmListaFavorito&lt;-Usuario" style="stroke: #A80036; stroke-width: 1.0; stroke-dasharray: 7.0,7.0;"/><polygon fill="none" points="624.25,84.2,631.25,64.2,638.25,84.2,624.25,84.2" style="stroke: #A80036; stroke-width: 1.0;"/><!--MD5=[e7c5ca184dd4758ee42a1c866c0125b1]
reverse link ExecutarMidiaPlayer to Usuario--><path d="M1051,84.07 C1051,84.07 1051,145 1051,145 C1051,145 955.165,145 870.935,145 " fill="none" id="ExecutarMidiaPlayer&lt;-Usuario" style="stroke: #A80036; stroke-width: 1.0; stroke-dasharray: 7.0,7.0;"/><polygon fill="none" points="1044,84.07,1051,64.07,1058,84.07,1044,84.07" style="stroke: #A80036; stroke-width: 1.0;"/><!--MD5=[ef03cdfb0d5005d2c65ed5eae5cc8ed6]
reverse link ComprarMidia to Usuario--><path d="M61,84.21 C61,84.21 61,169 61,169 C61,169 423.579,169 621.157,169 " fill="none" id="ComprarMidia&lt;-Usuario" style="stroke: #A80036; stroke-width: 1.0; stroke-dasharray: 7.0,7.0;"/><polygon fill="none" points="54.0001,84.21,61,64.21,68.0001,84.21,54.0001,84.21" style="stroke: #A80036; stroke-width: 1.0;"/><!--MD5=[123deba0891c53db7d1d39e376bf7088]
reverse link VenderMidia to Usuario--><path d="M202,84.2 C202,84.2 202,155 202,155 C202,155 460.588,155 621.195,155 " fill="none" id="VenderMidia&lt;-Usuario" style="stroke: #A80036; stroke-width: 1.0; stroke-dasharray: 7.0,7.0;"/><polygon fill="none" points="195,84.2,202,64.2,209,84.2,195,84.2" style="stroke: #A80036; stroke-width: 1.0;"/><!--MD5=[33222bad3dae2c84aef1758843827c21]
reverse link DownloadMidia to Usuario--><path d="M346,84.14 C346,84.14 346,140 346,140 C346,140 503.964,140 621.357,140 " fill="none" id="DownloadMidia&lt;-Usuario" style="stroke: #A80036; stroke-width: 1.0; stroke-dasharray: 7.0,7.0;"/><polygon fill="none" points="339,84.14,346,64.14,353,84.14,339,84.14" style="stroke: #A80036; stroke-width: 1.0;"/><!--MD5=[0dce021752d6e04b224a6936f41e3e74]
link Administrador to Dashboard--><path d="M1476,435.333 C1476,435.333 1476,553.71 1476,553.71 " fill="none" id="Administrador-&gt;Dashboard" style="stroke: #A80036; stroke-width: 1.0;"/><polygon fill="#A80036" points="1476,558.71,1480,549.71,1476,553.71,1472,549.71,1476,558.71" style="stroke: #A80036; stroke-width: 1.0;"/><text fill="#000000" font-family="sans-serif" font-size="13" lengthAdjust="spacingAndGlyphs" textLength="70" x="1477" y="507.4951">«delegates»</text><!--MD5=[979fd8eb9d41af9f30c2749528a949e8]
@startuml class
skinparam linetype ortho

enum TipoAcademicoEnum <<Enum>> {
  ALUNO
  PROFESSOR
  TECNICOADM
}

enum TipoMidiaEnum <<Enum>> {
  MUSICA
  VIDEO
  PODCAST
  LIVRO
}

abstract class Usuario {
  nome
  ultimoNome
  email
  senha
  credito
  List<Midia> midiasAdquiridas
  Map<TipoMidiaEnum, List<Midia>> midiasfavoritas
  - - -
  autentica()
  adicionaCreditos()
}

class Academico {
  tipo : TipoAcademicoEnum
}

class Administrador {}

class Album {
  List<Musica> musicas
}

abstract class Midia {
  nome
  descricao
  imagem
  preco
  autores
  conteudo
  dataCriacao
  pagavel: boolean
  - - -
  visualizar()
  comprar()
  vender()
  download() 
}

abstract class MidiaPlayer {
  duracao
  executar()
}

class Dashboard { 
  acompanharVendas()
}

class Livro {
  numeroPaginas
  categorias
}

class Musica {
  categorias
}

class Video {
  categorias
}

class Podcast {
  categorias
}

Autor "1" *- - "1..*" Midia

Usuario o- - Midia

Academico *- - TipoAcademicoEnum
Usuario *- - TipoMidiaEnum

Usuario <|- - Academico
Academico <|- - Autor
Usuario <|- - Administrador

Midia <|- - Livro
Midia <|- - MidiaPlayer
MidiaPlayer <|- - Musica
MidiaPlayer <|- - Video
MidiaPlayer <|- - Podcast

Musica "1..*" - -o "0" Album

interface VisualizarMidia <<Interface>> 
interface RemoverMidia <<Interface>> 
interface RemoverAcademico <<Interface>> 
interface AtualizarMidia <<Interface>> 
interface AdicionarCredito <<Interface>> 
interface CriarAlbum <<Interface>> 
interface VisualizarAlbum <<Interface>> 

VisualizarAlbum <|.. Academico
CriarAlbum <|.. Autor
AdicionarCredito <|.. Usuario
VisualizarMidia <|.. Usuario
VisualizarMidia <|.. Autor
RemoverMidia <|.. Autor
RemoverMidia <|.. Administrador
RemoverAcademico <|.. Administrador
AtualizarMidia <|.. Autor

interface ExecutarMidiaPlayer <<Interface>> 
interface ComprarMidia <<Interface>> 
interface VenderMidia <<Interface>> 
interface DownloadMidia <<Interface>> 
interface AdicionarMidiaEmListaFavorito <<Interface>> 
interface VisualizarCreditor <<Interface>> 
interface VisualizarCreditor <<Interface>> 

VisualizarCreditor <|.. Usuario
AdicionarMidiaEmListaFavorito <|.. Usuario
ExecutarMidiaPlayer <|.. Usuario
ComprarMidia <|.. Usuario
VenderMidia <|.. Usuario
DownloadMidia <|.. Usuario

Administrador - -> Dashboard : <<delegates>>

hide Dashboard attributes
hide TipoAcademicoEnum methods
hide TipoMidiaEnum methods


@enduml

PlantUML version 1.2020.10(Sun May 17 06:35:57 GMT-03:00 2020)
(GPL source distribution)
Java Runtime: Java(TM) SE Runtime Environment
JVM: Java HotSpot(TM) 64-Bit Server VM
Java Version: 1.8.0_261-b12
Operating System: Windows 10
Default Encoding: Cp1252
Language: en
Country: US
--></g></svg>