<?xml version="1.0" encoding="UTF-8" standalone="no"?><svg xmlns="http://www.w3.org/2000/svg" xmlns:xlink="http://www.w3.org/1999/xlink" contentScriptType="application/ecmascript" contentStyleType="text/css" height="1069px" preserveAspectRatio="none" style="width:707px;height:1069px;" version="1.1" viewBox="0 0 707 1069" width="707px" zoomAndPan="magnify"><defs><filter height="300%" id="fzafskj9hkwo1" width="300%" x="-1" y="-1"><feGaussianBlur result="blurOut" stdDeviation="2.0"/><feColorMatrix in="blurOut" result="blurOut2" type="matrix" values="0 0 0 0 0 0 0 0 0 0 0 0 0 0 0 0 0 0 .4 0"/><feOffset dx="4.0" dy="4.0" in="blurOut2" result="blurOut3"/><feBlend in="SourceGraphic" in2="blurOut3" mode="normal"/></filter></defs><g><!--MD5=[35a64b983c79880384a2fd9b61f0c24b]
class Usuario--><rect fill="#FEFECE" filter="url(#fzafskj9hkwo1)" height="172.5234" id="Usuario" style="stroke: #A80036; stroke-width: 1.5;" width="150" x="39" y="8"/><ellipse cx="88.25" cy="24" fill="#A9DCDF" rx="11" ry="11" style="stroke: #A80036; stroke-width: 1.0;"/><path d="M90.4375,25.7656 L86.2969,25.7656 L85.875,26.7969 L86.2969,26.7969 Q86.9063,26.7969 87.1719,27.0313 Q87.4375,27.2656 87.4375,27.6563 Q87.4375,28.0313 87.1719,28.2656 Q86.9063,28.5 86.2969,28.5 L84,28.5 Q83.3906,28.5 83.1328,28.2656 Q82.875,28.0313 82.875,27.6406 Q82.875,27.2656 83.1484,27.0234 Q83.4219,26.7813 84.0469,26.7969 L86.7188,20.1406 L85.6094,20.1406 Q85,20.1406 84.7344,19.9063 Q84.4688,19.6719 84.4688,19.2813 Q84.4688,18.9063 84.7344,18.6719 Q85,18.4375 85.6094,18.4375 L89.2813,18.4375 L92.6719,26.7969 Q93.2656,26.7969 93.4531,26.9375 Q93.8438,27.2031 93.8438,27.6563 Q93.8438,28.0313 93.5859,28.2656 Q93.3281,28.5 92.7188,28.5 L90.4219,28.5 Q89.8125,28.5 89.5469,28.2656 Q89.2813,28.0313 89.2813,27.6406 Q89.2813,27.2656 89.5469,27.0313 Q89.8125,26.7969 90.4219,26.7969 L90.8438,26.7969 L90.4375,25.7656 Z M89.7188,24.0625 L88.3594,20.6875 L86.9844,24.0625 L89.7188,24.0625 Z "/><text fill="#000000" font-family="sans-serif" font-size="12" font-style="italic" lengthAdjust="spacingAndGlyphs" textLength="43" x="108.75" y="28.9102">Usuario</text><line style="stroke: #A80036; stroke-width: 1.5;" x1="40" x2="188" y1="40" y2="40"/><text fill="#000000" font-family="sans-serif" font-size="11" lengthAdjust="spacingAndGlyphs" textLength="26" x="45" y="55.4189">nome</text><text fill="#000000" font-family="sans-serif" font-size="11" lengthAdjust="spacingAndGlyphs" textLength="54" x="45" y="69.2549">ultimoNome</text><text fill="#000000" font-family="sans-serif" font-size="11" lengthAdjust="spacingAndGlyphs" textLength="24" x="45" y="83.0908">email</text><text fill="#000000" font-family="sans-serif" font-size="11" lengthAdjust="spacingAndGlyphs" textLength="30" x="45" y="96.9268">senha</text><text fill="#000000" font-family="sans-serif" font-size="11" lengthAdjust="spacingAndGlyphs" textLength="33" x="45" y="110.7627">credito</text><text fill="#000000" font-family="sans-serif" font-size="11" lengthAdjust="spacingAndGlyphs" textLength="138" x="45" y="124.5986">List&lt;Midia&gt; midiasAdquiridas</text><text fill="#000000" font-family="sans-serif" font-size="11" lengthAdjust="spacingAndGlyphs" textLength="129" x="45" y="138.4346">List&lt;Midia&gt; midiasfavoritas</text><line style="stroke: #A80036; stroke-width: 1.0;" x1="40" x2="188" y1="144.8516" y2="144.8516"/><text fill="#000000" font-family="sans-serif" font-size="11" lengthAdjust="spacingAndGlyphs" textLength="52" x="45" y="160.2705">autentica()</text><text fill="#000000" font-family="sans-serif" font-size="11" lengthAdjust="spacingAndGlyphs" textLength="88" x="45" y="174.1064">adicionaCreditos()</text><!--MD5=[dc04dbf1821e9b6a5ff361465a379a2f]
class Academico--><rect fill="#FEFECE" filter="url(#fzafskj9hkwo1)" height="48" id="Academico" style="stroke: #A80036; stroke-width: 1.5;" width="93" x="91.5" y="245"/><ellipse cx="106.5" cy="261" fill="#ADD1B2" rx="11" ry="11" style="stroke: #A80036; stroke-width: 1.0;"/><path d="M109.2656,256.875 Q109.4219,256.6563 109.6094,256.5469 Q109.7969,256.4375 110.0156,256.4375 Q110.3906,256.4375 110.625,256.6953 Q110.8594,256.9531 110.8594,257.5625 L110.8594,259.0156 Q110.8594,259.625 110.625,259.8906 Q110.3906,260.1563 110.0156,260.1563 Q109.6719,260.1563 109.4688,259.9531 Q109.2656,259.7656 109.1563,259.25 Q109.1094,258.8906 108.9219,258.7031 Q108.5938,258.3281 107.9844,258.1094 Q107.375,257.8906 106.75,257.8906 Q105.9844,257.8906 105.3516,258.2188 Q104.7188,258.5469 104.2266,259.2969 Q103.7344,260.0469 103.7344,261.0781 L103.7344,262.1719 Q103.7344,263.4063 104.625,264.2266 Q105.5156,265.0469 107.1094,265.0469 Q108.0469,265.0469 108.7031,264.7969 Q109.0938,264.6406 109.5156,264.2031 Q109.7813,263.9375 109.9297,263.8594 Q110.0781,263.7813 110.2813,263.7813 Q110.6094,263.7813 110.8672,264.0391 Q111.125,264.2969 111.125,264.6406 Q111.125,264.9844 110.7813,265.3906 Q110.2813,265.9688 109.4844,266.2969 Q108.4063,266.75 107.1094,266.75 Q105.5938,266.75 104.3906,266.125 Q103.4063,265.625 102.7188,264.5547 Q102.0313,263.4844 102.0313,262.2031 L102.0313,261.0469 Q102.0313,259.7188 102.6484,258.5703 Q103.2656,257.4219 104.3594,256.8047 Q105.4531,256.1875 106.6875,256.1875 Q107.4219,256.1875 108.0703,256.3516 Q108.7188,256.5156 109.2656,256.875 Z "/><text fill="#000000" font-family="sans-serif" font-size="12" lengthAdjust="spacingAndGlyphs" textLength="61" x="120.5" y="265.9102">Academico</text><line style="stroke: #A80036; stroke-width: 1.5;" x1="92.5" x2="183.5" y1="277" y2="277"/><line style="stroke: #A80036; stroke-width: 1.5;" x1="92.5" x2="183.5" y1="285" y2="285"/><!--MD5=[fdcda49d453d44c676d62f3f6af62207]
class Administrador--><rect fill="#FEFECE" filter="url(#fzafskj9hkwo1)" height="48" id="Administrador" style="stroke: #A80036; stroke-width: 1.5;" width="109" x="219.5" y="245"/><ellipse cx="234.5" cy="261" fill="#ADD1B2" rx="11" ry="11" style="stroke: #A80036; stroke-width: 1.0;"/><path d="M237.2656,256.875 Q237.4219,256.6563 237.6094,256.5469 Q237.7969,256.4375 238.0156,256.4375 Q238.3906,256.4375 238.625,256.6953 Q238.8594,256.9531 238.8594,257.5625 L238.8594,259.0156 Q238.8594,259.625 238.625,259.8906 Q238.3906,260.1563 238.0156,260.1563 Q237.6719,260.1563 237.4688,259.9531 Q237.2656,259.7656 237.1563,259.25 Q237.1094,258.8906 236.9219,258.7031 Q236.5938,258.3281 235.9844,258.1094 Q235.375,257.8906 234.75,257.8906 Q233.9844,257.8906 233.3516,258.2188 Q232.7188,258.5469 232.2266,259.2969 Q231.7344,260.0469 231.7344,261.0781 L231.7344,262.1719 Q231.7344,263.4063 232.625,264.2266 Q233.5156,265.0469 235.1094,265.0469 Q236.0469,265.0469 236.7031,264.7969 Q237.0938,264.6406 237.5156,264.2031 Q237.7813,263.9375 237.9297,263.8594 Q238.0781,263.7813 238.2813,263.7813 Q238.6094,263.7813 238.8672,264.0391 Q239.125,264.2969 239.125,264.6406 Q239.125,264.9844 238.7813,265.3906 Q238.2813,265.9688 237.4844,266.2969 Q236.4063,266.75 235.1094,266.75 Q233.5938,266.75 232.3906,266.125 Q231.4063,265.625 230.7188,264.5547 Q230.0313,263.4844 230.0313,262.2031 L230.0313,261.0469 Q230.0313,259.7188 230.6484,258.5703 Q231.2656,257.4219 232.3594,256.8047 Q233.4531,256.1875 234.6875,256.1875 Q235.4219,256.1875 236.0703,256.3516 Q236.7188,256.5156 237.2656,256.875 Z "/><text fill="#000000" font-family="sans-serif" font-size="12" lengthAdjust="spacingAndGlyphs" textLength="77" x="248.5" y="265.9102">Administrador</text><line style="stroke: #A80036; stroke-width: 1.5;" x1="220.5" x2="327.5" y1="277" y2="277"/><line style="stroke: #A80036; stroke-width: 1.5;" x1="220.5" x2="327.5" y1="285" y2="285"/><!--MD5=[7560274dc4d8b0cfc2c0496e7291d5fc]
class Album--><rect fill="#FEFECE" filter="url(#fzafskj9hkwo1)" height="61.8359" id="Album" style="stroke: #A80036; stroke-width: 1.5;" width="118" x="6" y="997"/><ellipse cx="43.95" cy="1013" fill="#ADD1B2" rx="11" ry="11" style="stroke: #A80036; stroke-width: 1.0;"/><path d="M46.7156,1008.875 Q46.8719,1008.6563 47.0594,1008.5469 Q47.2469,1008.4375 47.4656,1008.4375 Q47.8406,1008.4375 48.075,1008.6953 Q48.3094,1008.9531 48.3094,1009.5625 L48.3094,1011.0156 Q48.3094,1011.625 48.075,1011.8906 Q47.8406,1012.1563 47.4656,1012.1563 Q47.1219,1012.1563 46.9188,1011.9531 Q46.7156,1011.7656 46.6063,1011.25 Q46.5594,1010.8906 46.3719,1010.7031 Q46.0438,1010.3281 45.4344,1010.1094 Q44.825,1009.8906 44.2,1009.8906 Q43.4344,1009.8906 42.8016,1010.2188 Q42.1688,1010.5469 41.6766,1011.2969 Q41.1844,1012.0469 41.1844,1013.0781 L41.1844,1014.1719 Q41.1844,1015.4063 42.075,1016.2266 Q42.9656,1017.0469 44.5594,1017.0469 Q45.4969,1017.0469 46.1531,1016.7969 Q46.5438,1016.6406 46.9656,1016.2031 Q47.2313,1015.9375 47.3797,1015.8594 Q47.5281,1015.7813 47.7313,1015.7813 Q48.0594,1015.7813 48.3172,1016.0391 Q48.575,1016.2969 48.575,1016.6406 Q48.575,1016.9844 48.2313,1017.3906 Q47.7313,1017.9688 46.9344,1018.2969 Q45.8563,1018.75 44.5594,1018.75 Q43.0438,1018.75 41.8406,1018.125 Q40.8563,1017.625 40.1688,1016.5547 Q39.4813,1015.4844 39.4813,1014.2031 L39.4813,1013.0469 Q39.4813,1011.7188 40.0984,1010.5703 Q40.7156,1009.4219 41.8094,1008.8047 Q42.9031,1008.1875 44.1375,1008.1875 Q44.8719,1008.1875 45.5203,1008.3516 Q46.1688,1008.5156 46.7156,1008.875 Z "/><text fill="#000000" font-family="sans-serif" font-size="12" lengthAdjust="spacingAndGlyphs" textLength="35" x="63.05" y="1017.9102">Album</text><line style="stroke: #A80036; stroke-width: 1.5;" x1="7" x2="123" y1="1029" y2="1029"/><text fill="#000000" font-family="sans-serif" font-size="11" lengthAdjust="spacingAndGlyphs" textLength="106" x="12" y="1044.4189">List&lt;Musica&gt; musicas</text><line style="stroke: #A80036; stroke-width: 1.5;" x1="7" x2="123" y1="1050.8359" y2="1050.8359"/><!--MD5=[17f253dd83c370255a059fc7ad56c447]
class Midia--><rect fill="#FEFECE" filter="url(#fzafskj9hkwo1)" height="214.0313" id="Midia" style="stroke: #A80036; stroke-width: 1.5;" width="70" x="195" y="465"/><ellipse cx="214.05" cy="481" fill="#A9DCDF" rx="11" ry="11" style="stroke: #A80036; stroke-width: 1.0;"/><path d="M216.2375,482.7656 L212.0969,482.7656 L211.675,483.7969 L212.0969,483.7969 Q212.7063,483.7969 212.9719,484.0313 Q213.2375,484.2656 213.2375,484.6563 Q213.2375,485.0313 212.9719,485.2656 Q212.7063,485.5 212.0969,485.5 L209.8,485.5 Q209.1906,485.5 208.9328,485.2656 Q208.675,485.0313 208.675,484.6406 Q208.675,484.2656 208.9484,484.0234 Q209.2219,483.7813 209.8469,483.7969 L212.5188,477.1406 L211.4094,477.1406 Q210.8,477.1406 210.5344,476.9063 Q210.2688,476.6719 210.2688,476.2813 Q210.2688,475.9063 210.5344,475.6719 Q210.8,475.4375 211.4094,475.4375 L215.0813,475.4375 L218.4719,483.7969 Q219.0656,483.7969 219.2531,483.9375 Q219.6438,484.2031 219.6438,484.6563 Q219.6438,485.0313 219.3859,485.2656 Q219.1281,485.5 218.5188,485.5 L216.2219,485.5 Q215.6125,485.5 215.3469,485.2656 Q215.0813,485.0313 215.0813,484.6406 Q215.0813,484.2656 215.3469,484.0313 Q215.6125,483.7969 216.2219,483.7969 L216.6438,483.7969 L216.2375,482.7656 Z M215.5188,481.0625 L214.1594,477.6875 L212.7844,481.0625 L215.5188,481.0625 Z "/><text fill="#000000" font-family="sans-serif" font-size="12" font-style="italic" lengthAdjust="spacingAndGlyphs" textLength="29" x="228.95" y="485.9102">Midia</text><line style="stroke: #A80036; stroke-width: 1.5;" x1="196" x2="264" y1="497" y2="497"/><text fill="#000000" font-family="sans-serif" font-size="11" lengthAdjust="spacingAndGlyphs" textLength="26" x="201" y="512.4189">nome</text><text fill="#000000" font-family="sans-serif" font-size="11" lengthAdjust="spacingAndGlyphs" textLength="48" x="201" y="526.2549">descricao</text><text fill="#000000" font-family="sans-serif" font-size="11" lengthAdjust="spacingAndGlyphs" textLength="36" x="201" y="540.0908">imagem</text><text fill="#000000" font-family="sans-serif" font-size="11" lengthAdjust="spacingAndGlyphs" textLength="28" x="201" y="553.9268">preco</text><text fill="#000000" font-family="sans-serif" font-size="11" lengthAdjust="spacingAndGlyphs" textLength="37" x="201" y="567.7627">autores</text><text fill="#000000" font-family="sans-serif" font-size="11" lengthAdjust="spacingAndGlyphs" textLength="45" x="201" y="581.5986">conteudo</text><text fill="#000000" font-family="sans-serif" font-size="11" lengthAdjust="spacingAndGlyphs" textLength="58" x="201" y="595.4346">dataCriacao</text><text fill="#000000" font-family="sans-serif" font-size="11" lengthAdjust="spacingAndGlyphs" textLength="38" x="201" y="609.2705">pagavel</text><line style="stroke: #A80036; stroke-width: 1.0;" x1="196" x2="264" y1="615.6875" y2="615.6875"/><text fill="#000000" font-family="sans-serif" font-size="11" lengthAdjust="spacingAndGlyphs" textLength="54" x="201" y="631.1064">visualizar()</text><text fill="#000000" font-family="sans-serif" font-size="11" lengthAdjust="spacingAndGlyphs" textLength="48" x="201" y="644.9424">comprar()</text><text fill="#000000" font-family="sans-serif" font-size="11" lengthAdjust="spacingAndGlyphs" textLength="42" x="201" y="658.7783">vender()</text><text fill="#000000" font-family="sans-serif" font-size="11" lengthAdjust="spacingAndGlyphs" textLength="56" x="201" y="672.6143">download()</text><!--MD5=[fbbb13a747cf4d9626dbd92a2c7c5b05]
class MidiaPlayer--><rect fill="#FEFECE" filter="url(#fzafskj9hkwo1)" height="75.6719" id="MidiaPlayer" style="stroke: #A80036; stroke-width: 1.5;" width="96" x="119" y="739"/><ellipse cx="134" cy="755" fill="#A9DCDF" rx="11" ry="11" style="stroke: #A80036; stroke-width: 1.0;"/><path d="M136.1875,756.7656 L132.0469,756.7656 L131.625,757.7969 L132.0469,757.7969 Q132.6563,757.7969 132.9219,758.0313 Q133.1875,758.2656 133.1875,758.6563 Q133.1875,759.0313 132.9219,759.2656 Q132.6563,759.5 132.0469,759.5 L129.75,759.5 Q129.1406,759.5 128.8828,759.2656 Q128.625,759.0313 128.625,758.6406 Q128.625,758.2656 128.8984,758.0234 Q129.1719,757.7813 129.7969,757.7969 L132.4688,751.1406 L131.3594,751.1406 Q130.75,751.1406 130.4844,750.9063 Q130.2188,750.6719 130.2188,750.2813 Q130.2188,749.9063 130.4844,749.6719 Q130.75,749.4375 131.3594,749.4375 L135.0313,749.4375 L138.4219,757.7969 Q139.0156,757.7969 139.2031,757.9375 Q139.5938,758.2031 139.5938,758.6563 Q139.5938,759.0313 139.3359,759.2656 Q139.0781,759.5 138.4688,759.5 L136.1719,759.5 Q135.5625,759.5 135.2969,759.2656 Q135.0313,759.0313 135.0313,758.6406 Q135.0313,758.2656 135.2969,758.0313 Q135.5625,757.7969 136.1719,757.7969 L136.5938,757.7969 L136.1875,756.7656 Z M135.4688,755.0625 L134.1094,751.6875 L132.7344,755.0625 L135.4688,755.0625 Z "/><text fill="#000000" font-family="sans-serif" font-size="12" font-style="italic" lengthAdjust="spacingAndGlyphs" textLength="64" x="148" y="759.9102">MidiaPlayer</text><line style="stroke: #A80036; stroke-width: 1.5;" x1="120" x2="214" y1="771" y2="771"/><text fill="#000000" font-family="sans-serif" font-size="11" lengthAdjust="spacingAndGlyphs" textLength="40" x="125" y="786.4189">duracao</text><line style="stroke: #A80036; stroke-width: 1.5;" x1="120" x2="214" y1="792.8359" y2="792.8359"/><text fill="#000000" font-family="sans-serif" font-size="11" lengthAdjust="spacingAndGlyphs" textLength="51" x="125" y="808.2549">executar()</text><!--MD5=[f45ed34e1fd2d44e62b0a8e0606f603d]
class Livro--><rect fill="#FEFECE" filter="url(#fzafskj9hkwo1)" height="75.6719" id="Livro" style="stroke: #A80036; stroke-width: 1.5;" width="86" x="250" y="739"/><ellipse cx="277.6" cy="755" fill="#ADD1B2" rx="11" ry="11" style="stroke: #A80036; stroke-width: 1.0;"/><path d="M280.3656,750.875 Q280.5219,750.6563 280.7094,750.5469 Q280.8969,750.4375 281.1156,750.4375 Q281.4906,750.4375 281.725,750.6953 Q281.9594,750.9531 281.9594,751.5625 L281.9594,753.0156 Q281.9594,753.625 281.725,753.8906 Q281.4906,754.1563 281.1156,754.1563 Q280.7719,754.1563 280.5688,753.9531 Q280.3656,753.7656 280.2563,753.25 Q280.2094,752.8906 280.0219,752.7031 Q279.6938,752.3281 279.0844,752.1094 Q278.475,751.8906 277.85,751.8906 Q277.0844,751.8906 276.4516,752.2188 Q275.8188,752.5469 275.3266,753.2969 Q274.8344,754.0469 274.8344,755.0781 L274.8344,756.1719 Q274.8344,757.4063 275.725,758.2266 Q276.6156,759.0469 278.2094,759.0469 Q279.1469,759.0469 279.8031,758.7969 Q280.1938,758.6406 280.6156,758.2031 Q280.8813,757.9375 281.0297,757.8594 Q281.1781,757.7813 281.3813,757.7813 Q281.7094,757.7813 281.9672,758.0391 Q282.225,758.2969 282.225,758.6406 Q282.225,758.9844 281.8813,759.3906 Q281.3813,759.9688 280.5844,760.2969 Q279.5063,760.75 278.2094,760.75 Q276.6938,760.75 275.4906,760.125 Q274.5063,759.625 273.8188,758.5547 Q273.1313,757.4844 273.1313,756.2031 L273.1313,755.0469 Q273.1313,753.7188 273.7484,752.5703 Q274.3656,751.4219 275.4594,750.8047 Q276.5531,750.1875 277.7875,750.1875 Q278.5219,750.1875 279.1703,750.3516 Q279.8188,750.5156 280.3656,750.875 Z "/><text fill="#000000" font-family="sans-serif" font-size="12" lengthAdjust="spacingAndGlyphs" textLength="26" x="294.4" y="759.9102">Livro</text><line style="stroke: #A80036; stroke-width: 1.5;" x1="251" x2="335" y1="771" y2="771"/><text fill="#000000" font-family="sans-serif" font-size="11" lengthAdjust="spacingAndGlyphs" textLength="74" x="256" y="786.4189">numeroPaginas</text><text fill="#000000" font-family="sans-serif" font-size="11" lengthAdjust="spacingAndGlyphs" textLength="51" x="256" y="800.2549">categorias</text><line style="stroke: #A80036; stroke-width: 1.5;" x1="251" x2="335" y1="806.6719" y2="806.6719"/><!--MD5=[2927a630b13e88512b2d3b16c23c7e23]
class Musica--><rect fill="#FEFECE" filter="url(#fzafskj9hkwo1)" height="61.8359" id="Musica" style="stroke: #A80036; stroke-width: 1.5;" width="71" x="29.5" y="875"/><ellipse cx="44.5" cy="891" fill="#ADD1B2" rx="11" ry="11" style="stroke: #A80036; stroke-width: 1.0;"/><path d="M47.2656,886.875 Q47.4219,886.6563 47.6094,886.5469 Q47.7969,886.4375 48.0156,886.4375 Q48.3906,886.4375 48.625,886.6953 Q48.8594,886.9531 48.8594,887.5625 L48.8594,889.0156 Q48.8594,889.625 48.625,889.8906 Q48.3906,890.1563 48.0156,890.1563 Q47.6719,890.1563 47.4688,889.9531 Q47.2656,889.7656 47.1563,889.25 Q47.1094,888.8906 46.9219,888.7031 Q46.5938,888.3281 45.9844,888.1094 Q45.375,887.8906 44.75,887.8906 Q43.9844,887.8906 43.3516,888.2188 Q42.7188,888.5469 42.2266,889.2969 Q41.7344,890.0469 41.7344,891.0781 L41.7344,892.1719 Q41.7344,893.4063 42.625,894.2266 Q43.5156,895.0469 45.1094,895.0469 Q46.0469,895.0469 46.7031,894.7969 Q47.0938,894.6406 47.5156,894.2031 Q47.7813,893.9375 47.9297,893.8594 Q48.0781,893.7813 48.2813,893.7813 Q48.6094,893.7813 48.8672,894.0391 Q49.125,894.2969 49.125,894.6406 Q49.125,894.9844 48.7813,895.3906 Q48.2813,895.9688 47.4844,896.2969 Q46.4063,896.75 45.1094,896.75 Q43.5938,896.75 42.3906,896.125 Q41.4063,895.625 40.7188,894.5547 Q40.0313,893.4844 40.0313,892.2031 L40.0313,891.0469 Q40.0313,889.7188 40.6484,888.5703 Q41.2656,887.4219 42.3594,886.8047 Q43.4531,886.1875 44.6875,886.1875 Q45.4219,886.1875 46.0703,886.3516 Q46.7188,886.5156 47.2656,886.875 Z "/><text fill="#000000" font-family="sans-serif" font-size="12" lengthAdjust="spacingAndGlyphs" textLength="39" x="58.5" y="895.9102">Musica</text><line style="stroke: #A80036; stroke-width: 1.5;" x1="30.5" x2="99.5" y1="907" y2="907"/><text fill="#000000" font-family="sans-serif" font-size="11" lengthAdjust="spacingAndGlyphs" textLength="51" x="35.5" y="922.4189">categorias</text><line style="stroke: #A80036; stroke-width: 1.5;" x1="30.5" x2="99.5" y1="928.8359" y2="928.8359"/><!--MD5=[166247bf81aba95c770c3b8fd8e3cb19]
class Video--><rect fill="#FEFECE" filter="url(#fzafskj9hkwo1)" height="61.8359" id="Video" style="stroke: #A80036; stroke-width: 1.5;" width="63" x="135.5" y="875"/><ellipse cx="150.5" cy="891" fill="#ADD1B2" rx="11" ry="11" style="stroke: #A80036; stroke-width: 1.0;"/><path d="M153.2656,886.875 Q153.4219,886.6563 153.6094,886.5469 Q153.7969,886.4375 154.0156,886.4375 Q154.3906,886.4375 154.625,886.6953 Q154.8594,886.9531 154.8594,887.5625 L154.8594,889.0156 Q154.8594,889.625 154.625,889.8906 Q154.3906,890.1563 154.0156,890.1563 Q153.6719,890.1563 153.4688,889.9531 Q153.2656,889.7656 153.1563,889.25 Q153.1094,888.8906 152.9219,888.7031 Q152.5938,888.3281 151.9844,888.1094 Q151.375,887.8906 150.75,887.8906 Q149.9844,887.8906 149.3516,888.2188 Q148.7188,888.5469 148.2266,889.2969 Q147.7344,890.0469 147.7344,891.0781 L147.7344,892.1719 Q147.7344,893.4063 148.625,894.2266 Q149.5156,895.0469 151.1094,895.0469 Q152.0469,895.0469 152.7031,894.7969 Q153.0938,894.6406 153.5156,894.2031 Q153.7813,893.9375 153.9297,893.8594 Q154.0781,893.7813 154.2813,893.7813 Q154.6094,893.7813 154.8672,894.0391 Q155.125,894.2969 155.125,894.6406 Q155.125,894.9844 154.7813,895.3906 Q154.2813,895.9688 153.4844,896.2969 Q152.4063,896.75 151.1094,896.75 Q149.5938,896.75 148.3906,896.125 Q147.4063,895.625 146.7188,894.5547 Q146.0313,893.4844 146.0313,892.2031 L146.0313,891.0469 Q146.0313,889.7188 146.6484,888.5703 Q147.2656,887.4219 148.3594,886.8047 Q149.4531,886.1875 150.6875,886.1875 Q151.4219,886.1875 152.0703,886.3516 Q152.7188,886.5156 153.2656,886.875 Z "/><text fill="#000000" font-family="sans-serif" font-size="12" lengthAdjust="spacingAndGlyphs" textLength="31" x="164.5" y="895.9102">Video</text><line style="stroke: #A80036; stroke-width: 1.5;" x1="136.5" x2="197.5" y1="907" y2="907"/><text fill="#000000" font-family="sans-serif" font-size="11" lengthAdjust="spacingAndGlyphs" textLength="51" x="141.5" y="922.4189">categorias</text><line style="stroke: #A80036; stroke-width: 1.5;" x1="136.5" x2="197.5" y1="928.8359" y2="928.8359"/><!--MD5=[148499297b6f36812855c8d7dd33a717]
class Podcast--><rect fill="#FEFECE" filter="url(#fzafskj9hkwo1)" height="61.8359" id="Podcast" style="stroke: #A80036; stroke-width: 1.5;" width="77" x="233.5" y="875"/><ellipse cx="248.5" cy="891" fill="#ADD1B2" rx="11" ry="11" style="stroke: #A80036; stroke-width: 1.0;"/><path d="M251.2656,886.875 Q251.4219,886.6563 251.6094,886.5469 Q251.7969,886.4375 252.0156,886.4375 Q252.3906,886.4375 252.625,886.6953 Q252.8594,886.9531 252.8594,887.5625 L252.8594,889.0156 Q252.8594,889.625 252.625,889.8906 Q252.3906,890.1563 252.0156,890.1563 Q251.6719,890.1563 251.4688,889.9531 Q251.2656,889.7656 251.1563,889.25 Q251.1094,888.8906 250.9219,888.7031 Q250.5938,888.3281 249.9844,888.1094 Q249.375,887.8906 248.75,887.8906 Q247.9844,887.8906 247.3516,888.2188 Q246.7188,888.5469 246.2266,889.2969 Q245.7344,890.0469 245.7344,891.0781 L245.7344,892.1719 Q245.7344,893.4063 246.625,894.2266 Q247.5156,895.0469 249.1094,895.0469 Q250.0469,895.0469 250.7031,894.7969 Q251.0938,894.6406 251.5156,894.2031 Q251.7813,893.9375 251.9297,893.8594 Q252.0781,893.7813 252.2813,893.7813 Q252.6094,893.7813 252.8672,894.0391 Q253.125,894.2969 253.125,894.6406 Q253.125,894.9844 252.7813,895.3906 Q252.2813,895.9688 251.4844,896.2969 Q250.4063,896.75 249.1094,896.75 Q247.5938,896.75 246.3906,896.125 Q245.4063,895.625 244.7188,894.5547 Q244.0313,893.4844 244.0313,892.2031 L244.0313,891.0469 Q244.0313,889.7188 244.6484,888.5703 Q245.2656,887.4219 246.3594,886.8047 Q247.4531,886.1875 248.6875,886.1875 Q249.4219,886.1875 250.0703,886.3516 Q250.7188,886.5156 251.2656,886.875 Z "/><text fill="#000000" font-family="sans-serif" font-size="12" lengthAdjust="spacingAndGlyphs" textLength="45" x="262.5" y="895.9102">Podcast</text><line style="stroke: #A80036; stroke-width: 1.5;" x1="234.5" x2="309.5" y1="907" y2="907"/><text fill="#000000" font-family="sans-serif" font-size="11" lengthAdjust="spacingAndGlyphs" textLength="51" x="239.5" y="922.4189">categorias</text><line style="stroke: #A80036; stroke-width: 1.5;" x1="234.5" x2="309.5" y1="928.8359" y2="928.8359"/><!--MD5=[7b7d686d3dc2c644927357cb508758fd]
class Autor--><rect fill="#FEFECE" filter="url(#fzafskj9hkwo1)" height="48" id="Autor" style="stroke: #A80036; stroke-width: 1.5;" width="60" x="392" y="357"/><ellipse cx="407" cy="373" fill="#ADD1B2" rx="11" ry="11" style="stroke: #A80036; stroke-width: 1.0;"/><path d="M409.7656,368.875 Q409.9219,368.6563 410.1094,368.5469 Q410.2969,368.4375 410.5156,368.4375 Q410.8906,368.4375 411.125,368.6953 Q411.3594,368.9531 411.3594,369.5625 L411.3594,371.0156 Q411.3594,371.625 411.125,371.8906 Q410.8906,372.1563 410.5156,372.1563 Q410.1719,372.1563 409.9688,371.9531 Q409.7656,371.7656 409.6563,371.25 Q409.6094,370.8906 409.4219,370.7031 Q409.0938,370.3281 408.4844,370.1094 Q407.875,369.8906 407.25,369.8906 Q406.4844,369.8906 405.8516,370.2188 Q405.2188,370.5469 404.7266,371.2969 Q404.2344,372.0469 404.2344,373.0781 L404.2344,374.1719 Q404.2344,375.4063 405.125,376.2266 Q406.0156,377.0469 407.6094,377.0469 Q408.5469,377.0469 409.2031,376.7969 Q409.5938,376.6406 410.0156,376.2031 Q410.2813,375.9375 410.4297,375.8594 Q410.5781,375.7813 410.7813,375.7813 Q411.1094,375.7813 411.3672,376.0391 Q411.625,376.2969 411.625,376.6406 Q411.625,376.9844 411.2813,377.3906 Q410.7813,377.9688 409.9844,378.2969 Q408.9063,378.75 407.6094,378.75 Q406.0938,378.75 404.8906,378.125 Q403.9063,377.625 403.2188,376.5547 Q402.5313,375.4844 402.5313,374.2031 L402.5313,373.0469 Q402.5313,371.7188 403.1484,370.5703 Q403.7656,369.4219 404.8594,368.8047 Q405.9531,368.1875 407.1875,368.1875 Q407.9219,368.1875 408.5703,368.3516 Q409.2188,368.5156 409.7656,368.875 Z "/><text fill="#000000" font-family="sans-serif" font-size="12" lengthAdjust="spacingAndGlyphs" textLength="28" x="421" y="377.9102">Autor</text><line style="stroke: #A80036; stroke-width: 1.5;" x1="393" x2="451" y1="389" y2="389"/><line style="stroke: #A80036; stroke-width: 1.5;" x1="393" x2="451" y1="397" y2="397"/><!--MD5=[8e9e303d7ff1f3a3dcedda7eeca45588]
class VisualizarMidia--><rect fill="#FEFECE" filter="url(#fzafskj9hkwo1)" height="56.1875" id="VisualizarMidia" style="stroke: #A80036; stroke-width: 1.5;" width="116" x="364" y="241"/><ellipse cx="379" cy="261.0938" fill="#B4A7E5" rx="11" ry="11" style="stroke: #A80036; stroke-width: 1.0;"/><path d="M379.9531,257.7344 L379.9531,264.3906 L381.6719,264.3906 Q382.2813,264.3906 382.5469,264.625 Q382.8125,264.8594 382.8125,265.25 Q382.8125,265.625 382.5469,265.8594 Q382.2813,266.0938 381.6719,266.0938 L376.5313,266.0938 Q375.9219,266.0938 375.6563,265.8594 Q375.3906,265.625 375.3906,265.2344 Q375.3906,264.8594 375.6563,264.625 Q375.9219,264.3906 376.5313,264.3906 L378.25,264.3906 L378.25,257.7344 L376.5313,257.7344 Q375.9219,257.7344 375.6563,257.5 Q375.3906,257.2656 375.3906,256.875 Q375.3906,256.5 375.6563,256.2656 Q375.9219,256.0313 376.5313,256.0313 L381.6719,256.0313 Q382.2813,256.0313 382.5469,256.2656 Q382.8125,256.5 382.8125,256.875 Q382.8125,257.2656 382.5469,257.5 Q382.2813,257.7344 381.6719,257.7344 L379.9531,257.7344 Z "/><text fill="#000000" font-family="sans-serif" font-size="12" font-style="italic" lengthAdjust="spacingAndGlyphs" textLength="62" x="404" y="258.457">«Interface»</text><text fill="#000000" font-family="sans-serif" font-size="12" font-style="italic" lengthAdjust="spacingAndGlyphs" textLength="84" x="393" y="273.5508">VisualizarMidia</text><line style="stroke: #A80036; stroke-width: 1.5;" x1="365" x2="479" y1="281.1875" y2="281.1875"/><line style="stroke: #A80036; stroke-width: 1.5;" x1="365" x2="479" y1="289.1875" y2="289.1875"/><!--MD5=[69e63c8801ad5c0986bc7f3f77b25913]
class RemoverMidia--><rect fill="#FEFECE" filter="url(#fzafskj9hkwo1)" height="56.1875" id="RemoverMidia" style="stroke: #A80036; stroke-width: 1.5;" width="112" x="452" y="66.5"/><ellipse cx="467" cy="86.5938" fill="#B4A7E5" rx="11" ry="11" style="stroke: #A80036; stroke-width: 1.0;"/><path d="M467.9531,83.2344 L467.9531,89.8906 L469.6719,89.8906 Q470.2813,89.8906 470.5469,90.125 Q470.8125,90.3594 470.8125,90.75 Q470.8125,91.125 470.5469,91.3594 Q470.2813,91.5938 469.6719,91.5938 L464.5313,91.5938 Q463.9219,91.5938 463.6563,91.3594 Q463.3906,91.125 463.3906,90.7344 Q463.3906,90.3594 463.6563,90.125 Q463.9219,89.8906 464.5313,89.8906 L466.25,89.8906 L466.25,83.2344 L464.5313,83.2344 Q463.9219,83.2344 463.6563,83 Q463.3906,82.7656 463.3906,82.375 Q463.3906,82 463.6563,81.7656 Q463.9219,81.5313 464.5313,81.5313 L469.6719,81.5313 Q470.2813,81.5313 470.5469,81.7656 Q470.8125,82 470.8125,82.375 Q470.8125,82.7656 470.5469,83 Q470.2813,83.2344 469.6719,83.2344 L467.9531,83.2344 Z "/><text fill="#000000" font-family="sans-serif" font-size="12" font-style="italic" lengthAdjust="spacingAndGlyphs" textLength="62" x="490" y="83.957">«Interface»</text><text fill="#000000" font-family="sans-serif" font-size="12" font-style="italic" lengthAdjust="spacingAndGlyphs" textLength="80" x="481" y="99.0508">RemoverMidia</text><line style="stroke: #A80036; stroke-width: 1.5;" x1="453" x2="563" y1="106.6875" y2="106.6875"/><line style="stroke: #A80036; stroke-width: 1.5;" x1="453" x2="563" y1="114.6875" y2="114.6875"/><!--MD5=[76676120570798196cdd558cb923afaf]
class RemoverAcademico--><rect fill="#FEFECE" filter="url(#fzafskj9hkwo1)" height="56.1875" id="RemoverAcademico" style="stroke: #A80036; stroke-width: 1.5;" width="145" x="224.5" y="66.5"/><ellipse cx="239.5" cy="86.5938" fill="#B4A7E5" rx="11" ry="11" style="stroke: #A80036; stroke-width: 1.0;"/><path d="M240.4531,83.2344 L240.4531,89.8906 L242.1719,89.8906 Q242.7813,89.8906 243.0469,90.125 Q243.3125,90.3594 243.3125,90.75 Q243.3125,91.125 243.0469,91.3594 Q242.7813,91.5938 242.1719,91.5938 L237.0313,91.5938 Q236.4219,91.5938 236.1563,91.3594 Q235.8906,91.125 235.8906,90.7344 Q235.8906,90.3594 236.1563,90.125 Q236.4219,89.8906 237.0313,89.8906 L238.75,89.8906 L238.75,83.2344 L237.0313,83.2344 Q236.4219,83.2344 236.1563,83 Q235.8906,82.7656 235.8906,82.375 Q235.8906,82 236.1563,81.7656 Q236.4219,81.5313 237.0313,81.5313 L242.1719,81.5313 Q242.7813,81.5313 243.0469,81.7656 Q243.3125,82 243.3125,82.375 Q243.3125,82.7656 243.0469,83 Q242.7813,83.2344 242.1719,83.2344 L240.4531,83.2344 Z "/><text fill="#000000" font-family="sans-serif" font-size="12" font-style="italic" lengthAdjust="spacingAndGlyphs" textLength="62" x="279" y="83.957">«Interface»</text><text fill="#000000" font-family="sans-serif" font-size="12" font-style="italic" lengthAdjust="spacingAndGlyphs" textLength="113" x="253.5" y="99.0508">RemoverAcademico</text><line style="stroke: #A80036; stroke-width: 1.5;" x1="225.5" x2="368.5" y1="106.6875" y2="106.6875"/><line style="stroke: #A80036; stroke-width: 1.5;" x1="225.5" x2="368.5" y1="114.6875" y2="114.6875"/><!--MD5=[5191232be2d92ca88cf7876f2dc54394]
class AtualizarMidia--><rect fill="#FEFECE" filter="url(#fzafskj9hkwo1)" height="56.1875" id="AtualizarMidia" style="stroke: #A80036; stroke-width: 1.5;" width="110" x="586" y="241"/><ellipse cx="601" cy="261.0938" fill="#B4A7E5" rx="11" ry="11" style="stroke: #A80036; stroke-width: 1.0;"/><path d="M601.9531,257.7344 L601.9531,264.3906 L603.6719,264.3906 Q604.2813,264.3906 604.5469,264.625 Q604.8125,264.8594 604.8125,265.25 Q604.8125,265.625 604.5469,265.8594 Q604.2813,266.0938 603.6719,266.0938 L598.5313,266.0938 Q597.9219,266.0938 597.6563,265.8594 Q597.3906,265.625 597.3906,265.2344 Q597.3906,264.8594 597.6563,264.625 Q597.9219,264.3906 598.5313,264.3906 L600.25,264.3906 L600.25,257.7344 L598.5313,257.7344 Q597.9219,257.7344 597.6563,257.5 Q597.3906,257.2656 597.3906,256.875 Q597.3906,256.5 597.6563,256.2656 Q597.9219,256.0313 598.5313,256.0313 L603.6719,256.0313 Q604.2813,256.0313 604.5469,256.2656 Q604.8125,256.5 604.8125,256.875 Q604.8125,257.2656 604.5469,257.5 Q604.2813,257.7344 603.6719,257.7344 L601.9531,257.7344 Z "/><text fill="#000000" font-family="sans-serif" font-size="12" font-style="italic" lengthAdjust="spacingAndGlyphs" textLength="62" x="623" y="258.457">«Interface»</text><text fill="#000000" font-family="sans-serif" font-size="12" font-style="italic" lengthAdjust="spacingAndGlyphs" textLength="78" x="615" y="273.5508">AtualizarMidia</text><line style="stroke: #A80036; stroke-width: 1.5;" x1="587" x2="695" y1="281.1875" y2="281.1875"/><line style="stroke: #A80036; stroke-width: 1.5;" x1="587" x2="695" y1="289.1875" y2="289.1875"/><!--MD5=[d0a83700a0fb0033d841bb213107c04c]
reverse link Autor to Midia--><path d="M388.831,414.651 C354.291,448.651 300.402,501.698 265.146,536.403 " fill="none" id="Autor&lt;-Midia" style="stroke: #A80036; stroke-width: 1.0;"/><polygon fill="#A80036" points="398.457,405.175,391.3749,406.5331,389.9047,413.5928,396.9868,412.2346,398.457,405.175" style="stroke: #A80036; stroke-width: 1.0;"/><text fill="#000000" font-family="sans-serif" font-size="13" lengthAdjust="spacingAndGlyphs" textLength="7" x="384.8653" y="426.5556">1</text><text fill="#000000" font-family="sans-serif" font-size="13" lengthAdjust="spacingAndGlyphs" textLength="20" x="272.9055" y="526.4324">1..*</text><!--MD5=[8ca2f7d71a4bd8549b210d3fd3446ca9]
reverse link Usuario to Midia--><path d="M76.4431,194.224 C68.6889,227.118 65.2174,263.823 74,297 C97.3235,385.106 156.297,474.509 194.682,526.253 " fill="none" id="Usuario&lt;-Midia" style="stroke: #A80036; stroke-width: 1.0;"/><polygon fill="#FFFFFF" points="79.7388,181.344,74.3762,186.1651,76.7639,192.9694,82.1265,188.1483,79.7388,181.344" style="stroke: #A80036; stroke-width: 1.0;"/><!--MD5=[5d8be773900fef823bca451b2769d179]
reverse link Usuario to Academico--><path d="M128.707,201.204 C130.991,217.622 133.137,233.048 134.79,244.93 " fill="none" id="Usuario&lt;-Academico" style="stroke: #A80036; stroke-width: 1.0;"/><polygon fill="none" points="121.753,202.018,125.93,181.245,135.619,200.089,121.753,202.018" style="stroke: #A80036; stroke-width: 1.0;"/><!--MD5=[2386fb79edec01e4d2430678291cfc6c]
reverse link Academico to Autor--><path d="M203.526,297.458 C281.149,328.268 352.635,354.704 391.968,369.086 " fill="none" id="Academico&lt;-Autor" style="stroke: #A80036; stroke-width: 1.0;"/><polygon fill="none" points="200.734,303.881,184.752,289.968,205.922,290.878,200.734,303.881" style="stroke: #A80036; stroke-width: 1.0;"/><!--MD5=[39a07826a1b74c11cd6c15b957d26b5e]
reverse link Usuario to Administrador--><path d="M202.692,191.121 C221.311,211.194 239.294,230.582 252.543,244.867 " fill="none" id="Usuario&lt;-Administrador" style="stroke: #A80036; stroke-width: 1.0;"/><polygon fill="none" points="197.55,195.87,189.081,176.447,207.814,186.35,197.55,195.87" style="stroke: #A80036; stroke-width: 1.0;"/><!--MD5=[3c353f16ad6f698b146590b8140ac17b]
reverse link Midia to Livro--><path d="M268.96,698.538 C273.443,712.985 277.713,726.742 281.376,738.545 " fill="none" id="Midia&lt;-Livro" style="stroke: #A80036; stroke-width: 1.0;"/><polygon fill="none" points="262.219,700.432,262.976,679.256,275.59,696.283,262.219,700.432" style="stroke: #A80036; stroke-width: 1.0;"/><!--MD5=[82533b8c2601e7a850642b0dd72d942b]
reverse link Midia to MidiaPlayer--><path d="M191.04,698.538 C186.557,712.985 182.287,726.742 178.624,738.545 " fill="none" id="Midia&lt;-MidiaPlayer" style="stroke: #A80036; stroke-width: 1.0;"/><polygon fill="none" points="184.41,696.283,197.024,679.256,197.781,700.432,184.41,696.283" style="stroke: #A80036; stroke-width: 1.0;"/><!--MD5=[5a5467fcde532a33a1a3eb9cfff28bda]
reverse link MidiaPlayer to Musica--><path d="M124.517,830.895 C112.449,845.921 99.7255,861.763 89.1544,874.925 " fill="none" id="MidiaPlayer&lt;-Musica" style="stroke: #A80036; stroke-width: 1.0;"/><polygon fill="none" points="119.242,826.285,137.223,815.075,130.157,835.052,119.242,826.285" style="stroke: #A80036; stroke-width: 1.0;"/><!--MD5=[56f92f22368eec05e35979518733a5f3]
reverse link MidiaPlayer to Video--><path d="M167,835.23 C167,848.93 167,863.024 167,874.925 " fill="none" id="MidiaPlayer&lt;-Video" style="stroke: #A80036; stroke-width: 1.0;"/><polygon fill="none" points="160,835.075,167,815.075,174,835.075,160,835.075" style="stroke: #A80036; stroke-width: 1.0;"/><!--MD5=[177c67a363ef67bbbfca2d53a69c70b4]
reverse link MidiaPlayer to Podcast--><path d="M210.732,830.895 C223.156,845.921 236.253,861.763 247.135,874.925 " fill="none" id="MidiaPlayer&lt;-Podcast" style="stroke: #A80036; stroke-width: 1.0;"/><polygon fill="none" points="205.002,834.95,197.653,815.075,215.791,826.029,205.002,834.95" style="stroke: #A80036; stroke-width: 1.0;"/><!--MD5=[a97b4c173602f725213a0f665d6057da]
link Musica to Album--><path d="M65,937.281 C65,951.351 65,968.3373 65,983.7278 " fill="none" id="Musica-&gt;Album" style="stroke: #A80036; stroke-width: 1.0;"/><polygon fill="#FFFFFF" points="65,996.7286,69,990.7286,65,984.7286,61,990.7286,65,996.7286" style="stroke: #A80036; stroke-width: 1.0;"/><text fill="#000000" font-family="sans-serif" font-size="13" lengthAdjust="spacingAndGlyphs" textLength="20" x="43.0938" y="958.3132">1..*</text><text fill="#000000" font-family="sans-serif" font-size="13" lengthAdjust="spacingAndGlyphs" textLength="7" x="57.2781" y="986.1772">0</text><!--MD5=[46cf54afc730f9585170f126fa172e17]
reverse link VisualizarMidia to Autor--><path d="M422,317.577 C422,331.185 422,345.411 422,356.84 " fill="none" id="VisualizarMidia&lt;-Autor" style="stroke: #A80036; stroke-width: 1.0; stroke-dasharray: 7.0,7.0;"/><polygon fill="none" points="415,317.191,422,297.191,429,317.191,415,317.191" style="stroke: #A80036; stroke-width: 1.0;"/><!--MD5=[8a75dfd0a35ce7fb852ef87bea9dd96d]
reverse link RemoverMidia to Autor--><path d="M514.053,142.495 C517.513,184.632 517.706,247.289 497,297 C487.218,320.486 467.808,341.669 451.185,356.757 " fill="none" id="RemoverMidia&lt;-Autor" style="stroke: #A80036; stroke-width: 1.0; stroke-dasharray: 7.0,7.0;"/><polygon fill="none" points="507.079,143.11,512.039,122.509,521.009,141.706,507.079,143.11" style="stroke: #A80036; stroke-width: 1.0;"/><!--MD5=[a8e296ce7eaa74068a6fb8190778373a]
reverse link RemoverMidia to Administrador--><path d="M454.842,134.687 C408.74,168.672 343.578,216.709 305.362,244.88 " fill="none" id="RemoverMidia&lt;-Administrador" style="stroke: #A80036; stroke-width: 1.0; stroke-dasharray: 7.0,7.0;"/><polygon fill="none" points="450.928,128.876,471.18,122.643,459.235,140.145,450.928,128.876" style="stroke: #A80036; stroke-width: 1.0;"/><!--MD5=[3caf364c4c9a7c8e465e34f5f8565c22]
reverse link RemoverAcademico to Administrador--><path d="M290.671,142.964 C286.248,176.141 280.535,218.988 277.075,244.935 " fill="none" id="RemoverAcademico&lt;-Administrador" style="stroke: #A80036; stroke-width: 1.0; stroke-dasharray: 7.0,7.0;"/><polygon fill="none" points="283.774,141.733,293.356,122.833,297.651,143.583,283.774,141.733" style="stroke: #A80036; stroke-width: 1.0;"/><!--MD5=[1e22089982c670ddb0a2b40e86e4f540]
reverse link AtualizarMidia to Autor--><path d="M569.204,306.062 C529.426,326.042 482.088,349.819 452.042,364.91 " fill="none" id="AtualizarMidia&lt;-Autor" style="stroke: #A80036; stroke-width: 1.0; stroke-dasharray: 7.0,7.0;"/><polygon fill="none" points="566.132,299.772,587.146,297.05,572.416,312.282,566.132,299.772" style="stroke: #A80036; stroke-width: 1.0;"/><!--MD5=[6cbdd07923fccf5db95c46b841250e71]
@startuml class
/'
enum TipoUsuario {
  academico
  administrador
}

enum TipoMidia {
  musica
  livro
  video
  podcast
}
'/


abstract class Usuario {
  nome
  ultimoNome
  email
  senha
  credito
  List<Midia> midiasAdquiridas
  List<Midia> midiasfavoritas
  - - -
  autentica()
  adicionaCreditos()
}

class Academico {}

class Administrador {}
/'
class Dashboard {
  String nome
}
'/
class Album {
  List<Musica> musicas
}
/'
interface something <<Interface>> {

}
'/

abstract class Midia {
  nome
  descricao
  imagem
  preco
  autores
  conteudo
  dataCriacao
  pagavel
  - - -
  visualizar()
  comprar()
  vender()
  download() 
}

abstract class MidiaPlayer {
  duracao
  executar()
}

class Livro {
  numeroPaginas
  categorias
}

class Musica {
  categorias
}

class Video {
  categorias
}

class Podcast {
  categorias
}

Autor "1" *- - "1..*" Midia

Usuario o- - Midia

Usuario <|- - Academico
Academico <|- - Autor
Usuario <|- - Administrador

Midia <|- - Livro
Midia <|- - MidiaPlayer
MidiaPlayer <|- - Musica
MidiaPlayer <|- - Video
MidiaPlayer <|- - Podcast

Musica "1..*" - -o "0" Album

interface VisualizarMidia <<Interface>> 
interface RemoverMidia <<Interface>> 
interface RemoverAcademico <<Interface>> 
interface AtualizarMidia <<Interface>> 

VisualizarMidia <|.. Autor
RemoverMidia <|.. Autor
RemoverMidia <|.. Administrador
RemoverAcademico <|.. Administrador
AtualizarMidia <|.. Autor


@enduml

@startuml class


abstract class Usuario {
  nome
  ultimoNome
  email
  senha
  credito
  List<Midia> midiasAdquiridas
  List<Midia> midiasfavoritas
  - - -
  autentica()
  adicionaCreditos()
}

class Academico {}

class Administrador {}
class Album {
  List<Musica> musicas
}

abstract class Midia {
  nome
  descricao
  imagem
  preco
  autores
  conteudo
  dataCriacao
  pagavel
  - - -
  visualizar()
  comprar()
  vender()
  download() 
}

abstract class MidiaPlayer {
  duracao
  executar()
}

class Livro {
  numeroPaginas
  categorias
}

class Musica {
  categorias
}

class Video {
  categorias
}

class Podcast {
  categorias
}

Autor "1" *- - "1..*" Midia

Usuario o- - Midia

Usuario <|- - Academico
Academico <|- - Autor
Usuario <|- - Administrador

Midia <|- - Livro
Midia <|- - MidiaPlayer
MidiaPlayer <|- - Musica
MidiaPlayer <|- - Video
MidiaPlayer <|- - Podcast

Musica "1..*" - -o "0" Album

interface VisualizarMidia <<Interface>> 
interface RemoverMidia <<Interface>> 
interface RemoverAcademico <<Interface>> 
interface AtualizarMidia <<Interface>> 

VisualizarMidia <|.. Autor
RemoverMidia <|.. Autor
RemoverMidia <|.. Administrador
RemoverAcademico <|.. Administrador
AtualizarMidia <|.. Autor


@enduml

PlantUML version 1.2020.10(Sun May 17 06:35:57 GMT-03:00 2020)
(GPL source distribution)
Java Runtime: Java(TM) SE Runtime Environment
JVM: Java HotSpot(TM) 64-Bit Server VM
Java Version: 1.8.0_261-b12
Operating System: Windows 10
Default Encoding: Cp1252
Language: en
Country: US
--></g></svg>